<svg xmlns="http://www.w3.org/2000/svg" viewBox="0 0 92 39"><defs/><path d="M54.55 38.9h.91v-4.38h-.91zm4.25-1.63H60v.55a1.18 1.18 0 01-.43.24 1.44 1.44 0 01-.54.1 1.32 1.32 0 01-1-.41 1.44 1.44 0 01-.39-1 1.42 1.42 0 01.39-1 1.26 1.26 0 011-.42 1.13 1.13 0 01.6.17 1.16 1.16 0 01.44.41l.78-.42a2 2 0 00-1.82-1 2.35 2.35 0 00-1.67.64 2.17 2.17 0 00-.66 1.64 2.21 2.21 0 00.66 1.65 2.35 2.35 0 001.68.64 2.44 2.44 0 001.88-.83v-1.77H58.8v.81zm-7.86-2.75h-1.76v4.38h1.76a2.38 2.38 0 001.69-.6 2.28 2.28 0 000-3.18 2.37 2.37 0 00-1.69-.6zm1 3.18a1.35 1.35 0 01-1 .39h-.75v-2.75h.75a1.33 1.33 0 011 .37 1.52 1.52 0 010 2zm17.74-3.18L68 38.9h1.07l.27-.71h1.86l.27.71h1.07l-1.69-4.38zm-.1 2.85l.68-1.89.74 1.89zm4.93-2.85h-1v4.38h2.84v-.81h-1.84zm-10.24.82h1.32v3.56h.91v-3.56h1.32v-.82h-3.55zm-2 3.56h1v-4.38h-1zM92 8.1c-11.16 5.47-8.84 4.28-14.68 7.3a10 10 0 012.48-5.81 6.85 6.85 0 00-3.48-1.75 12.23 12.23 0 00-1.15 3.81A47.28 47.28 0 0064.8 24.86c.09-3.38 6-12.39 6.54-12.82a5.54 5.54 0 00-2.08-.81l-2.07 1a30.34 30.34 0 012.53-3.53c-.81-.85-3.58-.78-3.58-.78a19.43 19.43 0 00-1.6 3.41 11.38 11.38 0 001.72 1.54c-2.18 3.46-7.39 11.91-9.82 13v-.66a37.21 37.21 0 011-5.59c1.24-.31 6.14-1.68 5.68-7.39a14.45 14.45 0 00-3.13.66c-1-.28-2.13-.57-2.13-.57a15 15 0 00-2.37 4.46c-.91 1.68-4.24 8.49-7.32 11.29.14-.59 4.23-12.68 6.39-16.62 2.84-.45 6.2-.68 8.74-.85a3.57 3.57 0 00.32-2l-8.66 2a27.82 27.82 0 011.53-2.9c-.42-.68-3.71-.09-3.71-.09l-1.32 3.74-5.12 1.09-.31.52s2.61 5.85-6.68 19.92a157.7 157.7 0 017.06-22.68C54.74 5.11 55 1.43 53.24.41a2.91 2.91 0 00-.89-.36c-2.42-.53-5.15 3.71-7.92 9.85a42.35 42.35 0 01-5.18 1.35c.15 1.31.32 1.69.89 2.18a72.9 72.9 0 003.5-1.7c-.94 2.21-1.86 4.62-2.75 7.1a35.41 35.41 0 01-7.09 10.44c-.06.05-.16 0-.13-.08.72-2 2.86-9.48 4.6-13.88a6.55 6.55 0 00-2.27-.69c-.32.14-2.5 6.65-2.5 6.65S28.81 30 27.28 31.71c-.78-.53 5.44-15.53 10.68-19 .06 0 0-.11 0-.16A6.48 6.48 0 0035.69 11a.22.22 0 00-.19.07 29.81 29.81 0 00-2.89 2.79l-.07.08c-.48.53-1 1.1-1.46 1.73-2.47 3-7.41 10-12.71 17.37a.15.15 0 01-.27-.14 50.56 50.56 0 0110-17 11.42 11.42 0 001-1.28c.05-.07-2.83-2.45-3.18-2.7a.15.15 0 00-.18 0L23 13.66c.77-1.34 1.16-2.08 1.16-2.08a.15.15 0 00-.05-.24 7.64 7.64 0 00-3.6-.53.14.14 0 00-.13.1l-1.17 2.9a.16.16 0 00.06.18c.31.23 1.32 1 1.93 1.36-2.72 4.84-8.28 14-15.1 20.77a.19.19 0 01-.32-.12c0-15.86 9.57-33 12.53-31.74s-4.49 9.08-5.51 9.84c-.43.33 1.92 1.71 3.33 2C23 5 19.88 3.69 18.52 3.3 11.45 1.24.58 23.67 0 36.65a.34.34 0 00.13.3c.63.56 5.62 1.15 6.06 1.29a.43.43 0 00.46-.15A231.35 231.35 0 0022.2 15a7.87 7.87 0 012.66-1.47.16.16 0 01.19.07.18.18 0 010 .16c-.69 1.07-9.18 15-11.66 20.58a.17.17 0 000 .17c.09.1 4.07 1 4.5 1.18a.16.16 0 00.19-.07c.61-1 5.87-9.75 10.36-16-1.78 3.13-3.86 9.13-5.05 13.69a6.67 6.67 0 003.36.62l6.11-10.48h.09s-1.55 4.35-2.24 6.77a11.63 11.63 0 003 .71 52.16 52.16 0 006.18-9.23 867.54 867.54 0 00-4.76 14.76 17.54 17.54 0 003.09.84s10.37-15.81 8.36-24.23A46.2 46.2 0 0151.19 12l-6.12 17a22.35 22.35 0 003 .69c3-3.63 5.63-8.92 6.8-10.93-.27 1.25-1.43 4.93-1 7.66a9.73 9.73 0 003.07.66s3.88-5.17 9.56-14a11.82 11.82 0 011.8-.49c-1.51 1.4-6.55 10.62-6.6 12.94l3.15.68C67.34 19.6 72.35 15 75 12.53c-.27 1.56-.44 2.92-.84 4.49-.07 0-2.71 1.51-3.77 2a8.53 8.53 0 00-.83 1.38 35 35 0 005.94 3.48 42.56 42.56 0 001.5-6.53c2.58-.91.79-.27 14.43-4.87A27.81 27.81 0 0092 8.1zm-31.58 5.75c.44 1.33.57 3.69-2.9 5.39a13.19 13.19 0 012.9-5.39zm-8-13.28c.14 0 .47-.13.53.07.43 1.53-.37 5-5.92 8C49 4.09 50.4 1.31 52.42.57zm20.29 20.16a8.41 8.41 0 01-1.81-1.17s1.25-.44 3.14-1.17c-.22.73-.71 2.61-1.33 2.34z"/></svg>