<svg viewBox="0 0 104 32" fill="none" xmlns="http://www.w3.org/2000/svg"><defs/><path d="M0 3.2C0 1.43 1.38 0 3.08 0h97.84c1.7 0 3.08 1.43 3.08 3.2v25.6c0 1.77-1.38 3.2-3.08 3.2H3.08A3.14 3.14 0 010 28.8V3.2z" fill="#000"/><path d="M36.46 9.04c0 .65-.16 1.2-.54 1.6-.46.48-1 .72-1.7.72-.68 0-1.23-.24-1.69-.72a2.41 2.41 0 01-.69-1.76c0-.72.23-1.29.69-1.76.46-.48 1-.72 1.7-.72.3 0 .62.07.92.24.3.16.53.31.69.55l-.38.42c-.3-.4-.69-.55-1.23-.55-.46 0-.92.16-1.24.55-.39.31-.53.8-.53 1.36 0 .55.16 1.04.53 1.36.39.31.78.55 1.24.55.53 0 .92-.16 1.3-.55.24-.24.4-.56.4-.96h-1.7v-.64h2.23v.31zm3.55-2h-2.09v1.53h1.93v.55h-1.93v1.52h2.09v.64h-2.69V6.5h2.69v.55zm2.53 4.24h-.62V7.04h-1.3V6.5h3.23v.55h-1.3v4.24zm3.55 0V6.5h.62v4.8h-.62zm3.24 0h-.62V7.04h-1.3V6.5h3.16v.55h-1.31v4.24h.07zm7.32-.64c-.46.48-1 .72-1.7.72-.68 0-1.23-.24-1.7-.72a2.41 2.41 0 01-.68-1.76c0-.72.23-1.29.69-1.76.46-.48 1-.72 1.7-.72.69 0 1.23.24 1.7.72.45.47.68 1.04.68 1.76s-.23 1.28-.69 1.76zm-2.93-.39c.3.32.78.55 1.24.55.46 0 .92-.16 1.23-.55.3-.31.54-.8.54-1.36 0-.55-.16-1.04-.54-1.36-.3-.3-.77-.55-1.23-.55-.46 0-.92.17-1.24.55-.3.32-.53.81-.53 1.36 0 .56.14 1.03.53 1.36zm4.47 1.03V6.5h.7l2.22 3.76V6.5h.62v4.8h-.62l-2.39-3.92v3.91h-.53z" fill="#fff" stroke="#fff" stroke-width=".2" stroke-miterlimit="10"/><path d="M52.41 18.33a3.3 3.3 0 00-3.3 3.43 3.35 3.35 0 003.3 3.44 3.3 3.3 0 003.31-3.44c0-2.07-1.45-3.43-3.3-3.43zm0 5.43c-1 0-1.85-.88-1.85-2.07 0-1.2.84-2.08 1.85-2.08 1 0 1.86.81 1.86 2.08 0 1.2-.85 2.07-1.86 2.07zm-7.16-5.43a3.3 3.3 0 00-3.31 3.43 3.35 3.35 0 003.3 3.44 3.3 3.3 0 003.32-3.44c0-2.07-1.47-3.43-3.31-3.43zm0 5.43c-1 0-1.86-.88-1.86-2.07 0-1.2.85-2.08 1.86-2.08 1 0 1.85.81 1.85 2.08-.01 1.2-.84 2.07-1.85 2.07zm-8.56-4.4v1.43h3.3c-.06.8-.38 1.44-.77 1.84a3.37 3.37 0 01-2.55 1.05c-2.08 0-3.62-1.68-3.62-3.84 0-2.17 1.61-3.84 3.62-3.84 1.08 0 1.93.48 2.55 1.05l1-1.05a4.82 4.82 0 00-3.46-1.43 5.3 5.3 0 00-5.16 5.27 5.3 5.3 0 005.16 5.27c1.54 0 2.62-.48 3.54-1.52a4.93 4.93 0 001.24-3.36c0-.32 0-.65-.08-.89l-4.77.02zm34.98 1.12c-.3-.8-1.08-2.17-2.77-2.17-1.7 0-3.08 1.36-3.08 3.44 0 1.93 1.38 3.43 3.23 3.43a3.1 3.1 0 002.7-1.52l-1.08-.8c-.4.55-.85.95-1.62.95-.77 0-1.23-.31-1.6-1.05l4.38-1.92-.16-.36zM67.2 21.6c0-1.28 1-2 1.7-2 .53 0 1.07.31 1.23.72L67.2 21.6zm-3.61 3.28h1.47v-10h-1.47v10zm-2.32-5.83c-.39-.4-1-.81-1.77-.81-1.6 0-3.16 1.52-3.16 3.43a3.26 3.26 0 003.16 3.36c.78 0 1.38-.4 1.7-.8h.07v.48c0 1.28-.69 2-1.77 2a1.7 1.7 0 01-1.6-1.2l-1.24.55c.38.89 1.3 2 2.93 2 1.7 0 3.08-1.04 3.08-3.52v-6.08h-1.38l-.02.59zm-1.7 4.71c-1 0-1.85-.88-1.85-2.07 0-1.2.85-2.08 1.86-2.08 1 0 1.76.88 1.76 2.08 0 1.2-.76 2.07-1.77 2.07zm18.8-8.88h-3.46v9.99h1.47v-3.76h2a3.1 3.1 0 003.16-3.12c0-1.93-1.55-3.11-3.16-3.11zm.08 4.8h-2.09v-3.43h2.09c1.08 0 1.7.96 1.7 1.68-.08.88-.7 1.76-1.7 1.76zm8.86-1.44c-1.08 0-2.16.48-2.55 1.52l1.31.56c.3-.56.78-.72 1.31-.72.78 0 1.47.48 1.54 1.28v.08c-.23-.17-.85-.4-1.47-.4-1.38 0-2.77.8-2.77 2.23 0 1.36 1.15 2.24 2.38 2.24 1.01 0 1.47-.47 1.86-.95h.07v.8h1.38v-3.83a2.93 2.93 0 00-3.06-2.81zm-.16 5.52c-.46 0-1.15-.23-1.15-.88 0-.8.85-1.04 1.54-1.04.62 0 .92.16 1.3.31-.15.97-.91 1.61-1.69 1.61zm8.1-5.28l-1.61 4.31h-.07l-1.7-4.31h-1.54l2.55 6.08-1.47 3.36h1.47l3.92-9.44h-1.55zm-12.95 6.4h1.47v-10H82.3v10z" fill="#fff"/><path d="M7.96 6.9c-.23.23-.3.63-.3 1.11v17.67c0 .47.16.88.39 1.12l.07.07 9.55-9.91v-.17l-9.7-9.9z" fill="url(#paint0_linear)"/><path d="M20.75 20.32l-3.16-3.29v-.24l3.16-3.28.07.07 3.77 2.24c1.08.64 1.08 1.67 0 2.32l-3.84 2.18z" fill="url(#paint1_linear)"/><path d="M20.82 20.24l-3.23-3.36-9.63 10c.4.4.92.4 1.61.07l11.25-6.7z" fill="url(#paint2_linear)"/><path d="M20.82 13.52L9.57 6.88c-.69-.4-1.23-.32-1.6.07l9.62 9.92 3.23-3.35z" fill="url(#paint3_linear)"/><path opacity=".2" d="M20.75 20.17L9.57 26.72c-.61.4-1.15.32-1.54 0l-.07.08.07.07c.4.32.93.4 1.54 0l11.18-6.7z" fill="#000"/><path opacity=".12" d="M7.96 26.72c-.23-.24-.3-.64-.3-1.12v.08c0 .47.16.88.39 1.12v-.08h-.09zm16.65-8.8l-3.86 2.25.07.07L24.6 18c.53-.31.78-.72.78-1.12 0 .4-.3.72-.76 1.05z" fill="#000"/><path opacity=".25" d="M9.57 6.97l15.02 8.87c.46.3.78.64.78 1.04 0-.4-.23-.8-.78-1.12L9.57 6.9c-1.07-.64-1.92-.16-1.92 1.12v.08c0-1.2.85-1.77 1.92-1.12z" fill="#fff"/><defs><linearGradient id="paint0_linear" x1="16.72" y1="7.86" x2="3.31" y2="20.78" gradientUnits="userSpaceOnUse"><stop stop-color="#3A8DC9"/><stop offset=".01" stop-color="#3A8ECA"/><stop offset=".26" stop-color="#31A8DF"/><stop offset=".51" stop-color="#43AAD1"/><stop offset=".76" stop-color="#47AACA"/><stop offset="1" stop-color="#49AAC8"/></linearGradient><linearGradient id="paint1_linear" x1="26" y1="16.94" x2="7.36" y2="16.94" gradientUnits="userSpaceOnUse"><stop stop-color="#F3D72B"/><stop offset=".41" stop-color="#E8B330"/><stop offset=".78" stop-color="#DF9B32"/><stop offset="1" stop-color="#DC9331"/></linearGradient><linearGradient id="paint2_linear" x1="19.05" y1="18.72" x2=".86" y2="36.24" gradientUnits="userSpaceOnUse"><stop stop-color="#C8474D"/><stop offset="1" stop-color="#B5215E"/></linearGradient><linearGradient id="paint3_linear" x1="5.53" y1="1.07" x2="13.65" y2="8.89" gradientUnits="userSpaceOnUse"><stop stop-color="#37976C"/><stop offset=".07" stop-color="#35996B"/><stop offset=".48" stop-color="#3B9963"/><stop offset=".8" stop-color="#3D995D"/><stop offset="1" stop-color="#3E995B"/></linearGradient></defs></svg>