<svg viewBox="0 0 104 32" fill="none" xmlns="http://www.w3.org/2000/svg"><defs/><path d="M0 3.2C0 1.43 1.38 0 3.08 0h97.84c1.7 0 3.08 1.43 3.08 3.2v25.6c0 1.77-1.38 3.2-3.08 3.2H3.08A3.14 3.14 0 010 28.8V3.2z" fill="#000"/><path d="M22.5 15.67a4.68 4.68 0 012.14-3.9 4.71 4.71 0 00-3.59-2.05c-1.5-.18-3 .96-3.76.96-.8 0-1.96-.9-3.24-.9a4.71 4.71 0 00-4.04 2.58c-1.74 3.13-.47 7.75 1.21 10.27.81 1.26 1.8 2.64 3.12 2.58 1.28-.06 1.74-.84 3.24-.84 1.5 0 1.91.84 3.24.78 1.33 0 2.2-1.26 3.01-2.52.98-1.44 1.33-2.82 1.39-2.88a4.27 4.27 0 01-2.72-4.08zM20.01 8.1A4.4 4.4 0 0021 4.8c-.99.06-2.2.72-2.9 1.56a4.52 4.52 0 00-1.04 3.12c1.1.12 2.26-.54 2.95-1.38zM40.6 25.03h-1.73l-.98-3.12h-3.3l-.93 3.12H32l3.3-10.62h2.02l3.3 10.62zm-2.95-4.44l-.86-2.76c-.12-.3-.3-.96-.52-1.98h-.06c-.12.48-.3 1.14-.46 1.98l-.87 2.76h2.77zm11.46.54c0 1.32-.35 2.34-1.04 3.12-.58.6-1.33.96-2.26.96-.98 0-1.68-.36-2.14-1.08v4.02h-1.62v-8.28c0-.84 0-1.68-.06-2.52h1.45l.11 1.2h.06a2.73 2.73 0 012.49-1.38c.87 0 1.62.36 2.2 1.08.52.72.8 1.68.8 2.88zm-1.68.06c0-.72-.17-1.38-.46-1.86a1.71 1.71 0 00-1.45-.78c-.4 0-.75.12-1.1.42-.34.3-.52.66-.63 1.08-.06.18-.06.36-.06.54v1.26c0 .54.17 1.02.52 1.44.35.36.75.6 1.27.6.64 0 1.1-.24 1.45-.72.29-.54.46-1.2.46-1.98zm10.18-.06c0 1.32-.35 2.34-1.04 3.12a3.06 3.06 0 01-2.26 1.02c-.98 0-1.67-.36-2.14-1.08v4.02h-1.62v-8.34c0-.84 0-1.68-.05-2.52h1.44l.12 1.2h.06a2.73 2.73 0 012.48-1.38c.87 0 1.62.36 2.2 1.08.52.72.81 1.68.81 2.88zm-1.68.06c0-.72-.17-1.38-.46-1.86a1.71 1.71 0 00-1.45-.78c-.4 0-.75.12-1.1.42-.34.3-.52.66-.63 1.08-.06.24-.06.36-.06.54v1.26c0 .54.17 1.02.52 1.44.35.36.75.6 1.27.6.64 0 1.1-.24 1.45-.72.29-.54.46-1.2.46-1.98zm11.22.84c0 .9-.29 1.62-.92 2.22-.7.6-1.62.96-2.78.96-1.1 0-1.96-.24-2.66-.66l.4-1.44c.7.42 1.45.66 2.32.66.64 0 1.1-.12 1.45-.42.34-.3.52-.66.52-1.14 0-.42-.12-.78-.4-1.08-.3-.3-.76-.54-1.4-.84-1.79-.72-2.72-1.74-2.72-3.06 0-.9.3-1.56.93-2.16a3.74 3.74 0 012.55-.84c.92 0 1.73.18 2.3.48l-.4 1.38a4.16 4.16 0 00-1.96-.48c-.58 0-1.04.12-1.4.42-.28.24-.4.6-.4.96 0 .42.18.78.47 1.02s.75.54 1.5.84c.87.36 1.5.78 1.97 1.32a3 3 0 01.63 1.86zm5.44-3.36h-1.8v3.72c0 .96.35 1.44 1 1.44.28 0 .51 0 .74-.06l.06 1.32c-.35.12-.75.18-1.27.18-.64 0-1.16-.18-1.5-.6-.35-.42-.53-1.08-.53-2.04v-4.02h-1.1v-1.26h1.1v-1.38l1.62-.48v1.92h1.8l-.12 1.26zm8.16 2.46a4.2 4.2 0 01-.99 2.88 3.39 3.39 0 01-2.72 1.14c-1.1 0-1.96-.36-2.6-1.14a4.16 4.16 0 01-.98-2.82c0-1.2.35-2.16.98-2.94a3.35 3.35 0 012.66-1.14c1.1 0 1.97.36 2.6 1.14.7.78 1.05 1.74 1.05 2.88zm-1.74.06c0-.72-.17-1.32-.46-1.8-.35-.6-.81-.9-1.5-.9-.64 0-1.16.3-1.5.9a3.67 3.67 0 00-.47 1.86c0 .72.17 1.32.46 1.8.35.6.87.9 1.5.9.64 0 1.1-.3 1.5-.9.36-.54.47-1.2.47-1.86zm7.06-2.34c-.18-.06-.35-.06-.52-.06-.58 0-1.04.24-1.33.66-.3.42-.4.9-.4 1.5v4.02h-1.63v-5.22c0-.78 0-1.62-.06-2.4h1.45l.06 1.44h.06c.17-.48.46-.9.8-1.2.35-.24.76-.42 1.22-.42.17 0 .29 0 .4.06l-.05 1.62zm7.34 1.98c0 .24 0 .54-.05.78h-4.92c0 .78.23 1.32.7 1.74.4.36.92.54 1.61.54.75 0 1.4-.12 1.97-.36l.29 1.2c-.7.3-1.5.48-2.49.48a3.74 3.74 0 01-2.72-1.02 4.05 4.05 0 01-.98-2.82c0-1.14.29-2.1.93-2.88a3.09 3.09 0 012.6-1.26c1.04 0 1.85.42 2.43 1.26.46.6.63 1.38.63 2.34zm-1.56-.42c0-.48-.11-.96-.34-1.32-.24-.48-.7-.72-1.28-.72-.52 0-.98.24-1.33.72-.29.36-.46.84-.46 1.32h3.41zM34.13 10.62c-.47 0-.87 0-1.16-.06V5.4c.46-.06.92-.12 1.39-.12 1.9 0 2.77.96 2.77 2.52-.05 1.86-1.1 2.82-3 2.82zm.23-4.68c-.23 0-.47 0-.64.06v3.96h.52c1.22 0 1.97-.72 1.97-2.1 0-1.2-.64-1.92-1.85-1.92zm5.43 4.74c-1.04 0-1.73-.84-1.73-1.92 0-1.14.7-1.98 1.8-1.98 1.03 0 1.73.78 1.73 1.92s-.75 1.98-1.8 1.98zm0-3.36c-.57 0-.98.54-.98 1.38 0 .78.4 1.32.93 1.32.58 0 .92-.6.92-1.38.12-.72-.29-1.32-.87-1.32zm7.87-.54l-1.16 3.78h-.75l-.46-1.62c-.12-.42-.23-.78-.29-1.2-.06.42-.17.84-.29 1.2l-.52 1.62h-.75L42.4 6.78h.8l.41 1.8c.12.42.18.84.23 1.2.06-.3.18-.72.3-1.2l.51-1.8h.64l.52 1.74c.12.42.23.84.29 1.26.06-.36.11-.78.23-1.26l.46-1.74h.87zm4.17 3.78h-.81V8.4c0-.66-.24-1.02-.76-1.02-.46 0-.8.42-.8.9v2.28h-.82v-2.7c0-.36 0-.72-.05-1.08h.7l.05.6c.23-.42.63-.66 1.16-.66.75 0 1.27.6 1.27 1.62l.06 2.22zm2.25 0h-.8V5.1h.8v5.46zm2.95.12c-1.04 0-1.73-.84-1.73-1.92 0-1.14.69-1.98 1.79-1.98 1.04 0 1.73.78 1.73 1.92s-.75 1.98-1.79 1.98zm0-3.36c-.58 0-.98.54-.98 1.38 0 .78.4 1.32.92 1.32.58 0 .93-.6.93-1.38.06-.72-.29-1.32-.87-1.32zm4.98 3.24l-.06-.42c-.23.36-.58.54-1.04.54-.64 0-1.1-.48-1.1-1.14 0-.96.75-1.44 2.14-1.44v-.06c0-.48-.23-.72-.75-.72-.35 0-.7.12-.93.3l-.17-.54c.34-.24.75-.3 1.27-.3.92 0 1.45.54 1.45 1.56v1.38c0 .36 0 .66.05.9l-.86-.06zm-.12-1.86c-.93 0-1.33.24-1.33.78 0 .42.23.6.58.6.4 0 .8-.3.8-.78v-.6h-.05zm4.69 1.86l-.06-.6a1.2 1.2 0 01-1.16.72c-.87 0-1.5-.78-1.5-1.92 0-1.2.7-2.04 1.62-2.04.46 0 .8.18 1.04.54V5.1h.8v4.5c0 .36 0 .72.06 1.02l-.8-.06zm-.12-2.22c0-.54-.35-.96-.87-.96-.58 0-.98.54-.98 1.32s.4 1.26.92 1.26.87-.48.87-1.02v-.6h.06zm5.96 2.34c-1.04 0-1.74-.84-1.74-1.92 0-1.14.7-1.98 1.8-1.98 1.04 0 1.73.78 1.73 1.92s-.7 1.98-1.8 1.98zm.05-3.36c-.57 0-.98.54-.98 1.38 0 .78.4 1.32.93 1.32.58 0 .92-.6.92-1.38.06-.72-.34-1.32-.87-1.32zm6.08 3.24h-.81V8.4c0-.66-.23-1.02-.75-1.02-.47 0-.81.42-.81.9v2.28h-.81v-2.7c0-.36 0-.72-.06-1.08h.7l.05.6c.23-.42.64-.66 1.16-.66.75 0 1.27.6 1.27 1.62v2.22h.06zm5.44-3.12h-.87V9.3c0 .48.17.72.46.72.12 0 .29 0 .35-.06v.66c-.18.06-.35.12-.64.12-.64 0-1.04-.36-1.04-1.32V7.44h-.52v-.6h.52v-.72l.81-.24v.96h.87v.6h.06zm4.28 3.12h-.81V8.4c0-.66-.24-1.02-.76-1.02-.4 0-.8.3-.8.9v2.28h-.82V5.1h.81v2.28c.24-.42.64-.6 1.1-.6.75 0 1.22.6 1.22 1.62v2.16h.06zm4.4-1.68h-2.44c0 .72.46 1.14 1.16 1.14.35 0 .7-.06.98-.18l.12.6a2.6 2.6 0 01-1.22.24c-1.15 0-1.79-.72-1.79-1.92 0-1.14.7-2.04 1.74-2.04.92 0 1.5.72 1.5 1.8 0 .12 0 .24-.06.36zm-.76-.6c0-.6-.29-1.02-.81-1.02-.46 0-.81.42-.87 1.02h1.68z" fill="#fff"/></svg>