<svg xmlns="http://www.w3.org/2000/svg" viewBox="0 0 127.66 28"><defs/><path d="M24.63 12.43a.55.55 0 00-.48.43v2.45c0 .17.28.42.47.41.92 0 1.84-.06 2.76-.11 1.28 0 2.28.72 2.13 1.69-.11.71-.26 1.42-.44 2.13a3.91 3.91 0 01-2.68 2.31c-.85.18-1.7.35-2.55.49-.17 0-.48.24-.5.35-.16.82-.34 1.64-.54 2.45a3.87 3.87 0 01-2.43 2.55c-.74.17-1.48.3-2.22.41-1 .14-1.79-.82-1.74-2q.08-1.32.12-2.64a2.47 2.47 0 012.3-2.35c.87-.06 1.75-.12 2.63-.21.17 0 .48-.21.49-.32.1-.85.17-1.69.23-2.52 0-.18-.26-.43-.45-.43a128 128 0 01-2.74.11 2.2 2.2 0 01-2.28-2.19v-2.65A2.19 2.19 0 0119 10.61c.91 0 1.82.06 2.74.1a.53.53 0 00.45-.44c-.05-.84-.13-1.68-.22-2.52a.77.77 0 00-.51-.48c-.88-.09-1.76-.15-2.63-.2a2.46 2.46 0 01-2.3-2.34c0-.88-.08-1.76-.13-2.64 0-1.23.73-2.19 1.74-2 .74.1 1.48.23 2.22.4A3.87 3.87 0 0122.83 3c.2.81.38 1.63.54 2.44a.89.89 0 00.53.51c.85.14 1.7.3 2.56.49A3.83 3.83 0 0129.1 8.7c.18.71.32 1.42.43 2.13.15 1-.86 1.73-2.14 1.7l-2.76-.1zm-19.72 0c.19 0 .48.25.47.43v2.45a.55.55 0 01-.47.41c-.92 0-1.84-.06-2.77-.11-1.31-.03-2.31.72-2.11 1.69.11.71.26 1.42.44 2.13a3.91 3.91 0 002.68 2.31c.85.18 1.7.35 2.55.49.17 0 .48.24.5.35.16.82.34 1.64.54 2.45a3.87 3.87 0 002.43 2.55c.74.17 1.48.3 2.22.41 1 .14 1.79-.82 1.74-2L13 23.35A2.45 2.45 0 0010.7 21c-.87-.06-1.75-.12-2.63-.21-.17 0-.48-.21-.5-.32-.09-.85-.16-1.69-.22-2.52 0-.18.26-.43.45-.43.91.05 1.83.08 2.74.11a2.2 2.2 0 002.29-2.22v-2.65a2.19 2.19 0 00-2.29-2.18c-.91 0-1.82.06-2.74.1a.53.53 0 01-.45-.44c0-.84.13-1.68.22-2.52a.77.77 0 01.51-.48c.88-.09 1.76-.16 2.63-.2a2.46 2.46 0 002.3-2.34c0-.88.08-1.76.13-2.64 0-1.23-.73-2.19-1.74-2-.74.1-1.48.23-2.22.4A3.87 3.87 0 006.74 3c-.2.81-.38 1.63-.54 2.44a.92.92 0 01-.53.51q-1.27.21-2.55.48A3.86 3.86 0 00.44 8.7c-.18.71-.32 1.42-.43 2.13-.18.97.82 1.73 2.14 1.69l2.76-.09z" fill="#009e94"/><path d="M44 17.76a5.1 5.1 0 01-1.58.85 5.43 5.43 0 01-1.7.31 4.18 4.18 0 01-2-.43 3.4 3.4 0 01-1.29-1.14 5 5 0 01-.69-1.69 10.26 10.26 0 01-.2-2.05 10.41 10.41 0 01.24-2.3 5.23 5.23 0 01.76-1.83 3.77 3.77 0 011.37-1.23 4.34 4.34 0 012.07-.44 7.66 7.66 0 011.4.19 5.22 5.22 0 011.54.53V4.84H42.2V3.16h4V17.1h1.63v1.64h-3.78v-1zM41.44 9.6a2.81 2.81 0 00-1 .17 1.92 1.92 0 00-.81.62 3.35 3.35 0 00-.56 1.23 7.65 7.65 0 00-.21 2 6.55 6.55 0 00.19 1.74 2.84 2.84 0 00.51 1.09 1.8 1.8 0 00.78.57 2.78 2.78 0 001 .16 3.48 3.48 0 001.49-.35 4.18 4.18 0 001.12-.66V10.3a1.85 1.85 0 00-.45-.25 4.63 4.63 0 00-.67-.22 5.47 5.47 0 00-.7-.16 3.37 3.37 0 00-.69-.07zm7.32.15V8.09h3.42v9h1.57v1.4a4.32 4.32 0 01-1.05.32 5.44 5.44 0 01-1 .12 1.91 1.91 0 01-1.35-.39 1.83 1.83 0 01-.52-1.37V9.75zM52.4 5.1a1.43 1.43 0 01-1.46 1.44 1.34 1.34 0 01-1-.42 1.4 1.4 0 01-.42-1 1.37 1.37 0 01.42-1 1.34 1.34 0 011-.42 1.43 1.43 0 011 .42 1.4 1.4 0 01.42 1zm7.07 9.49l-1.9 2.52h1.26v1.63h-4.6v-1.63h1l3.16-4.19-2.13-3.19h-1.79V8.09h3.21l2.33 3.54 1.4-1.9h-1.07V8.09h4.73v1.64h-1.24l-2.73 3.51 2.57 3.87h1.55v1.63h-4.95v-1.63h.85l-1.65-2.52m7-4.84V8.09h3.42v9h1.57v1.4a4.89 4.89 0 01-1.06.33 6 6 0 01-1 .1 1.91 1.91 0 01-1.35-.38 1.79 1.79 0 01-.44-1.34V9.75zm3.66-4.64a1.4 1.4 0 01-.42 1 1.43 1.43 0 01-1 .42 1.33 1.33 0 01-1-.42 1.45 1.45 0 010-2 1.34 1.34 0 011-.42 1.43 1.43 0 011 .42 1.4 1.4 0 01.42 1z" fill="#fff"/><path d="M82.15 9.4a2.77 2.77 0 01.54 1 4.24 4.24 0 01.14 1.23 3.31 3.31 0 01-.36 1.57 3.48 3.48 0 01-1 1.15 4.58 4.58 0 01-1.47.72 6.46 6.46 0 01-1.85.25h-1.2a3.42 3.42 0 00-1.16.15.57.57 0 00-.39.58c0 .44.33.66 1 .66h2.88a5.29 5.29 0 013.1.8 2.76 2.76 0 011.11 2.4 2.94 2.94 0 01-.34 1.41 3.12 3.12 0 01-1 1.13 5.84 5.84 0 01-1.76.76 10.23 10.23 0 01-2.5.27 8.56 8.56 0 01-2.28-.25 4.45 4.45 0 01-1.45-.66 2.15 2.15 0 01-.76-.95 2.92 2.92 0 01-.22-1.13 2.74 2.74 0 01.45-1.58 3 3 0 01.94-.93 1.51 1.51 0 01-1-.57 1.73 1.73 0 01-.33-1.07 1.65 1.65 0 01.17-.77 1.93 1.93 0 011-.88 3.18 3.18 0 01.62-.2 2.54 2.54 0 01-1-.93 3.25 3.25 0 01-.45-1.84 3.79 3.79 0 01.39-1.79 3.48 3.48 0 011-1.21A4.33 4.33 0 0176.5 8a6.11 6.11 0 011.64-.22 8.59 8.59 0 011.13.08 9.91 9.91 0 011 .18h3.56v1.32H82.15zm-5.53 8.88a1.46 1.46 0 00-.41.24 2.08 2.08 0 00-.37.41 2.16 2.16 0 00-.26.5 1.47 1.47 0 00-.1.54 1.91 1.91 0 00.12.65 1.24 1.24 0 00.43.57 2.53 2.53 0 00.84.39 5.17 5.17 0 001.38.15 3.89 3.89 0 002.17-.49 1.48 1.48 0 00.73-1.24 1.81 1.81 0 00-.11-.6 1.31 1.31 0 00-.37-.53 1.89 1.89 0 00-.69-.39 2.9 2.9 0 00-1.05-.16h-2.31zm3.9-6.67a2.54 2.54 0 00-.11-.7 1.88 1.88 0 00-1.08-1.21 2.63 2.63 0 00-1.12-.21 2.23 2.23 0 00-1.68.58 2.11 2.11 0 00-.57 1.56 2.07 2.07 0 00.54 1.51 2.1 2.1 0 001.53.54 3 3 0 001.8-.51 1.81 1.81 0 00.71-1.56zm7.78-2a9.26 9.26 0 011.77-1.18A8.3 8.3 0 0191.14 8a3.58 3.58 0 011-.17.62.62 0 01.46.16.88.88 0 01.15.58 4.2 4.2 0 01-.17 1 2.36 2.36 0 01-.55 1h-3.79v6.49h1.59v1.63h-5.37v-1.58h1.51V9.75h-1.46V8.07h3.72v1.51h.07m14.85 3.82a8.25 8.25 0 01-.26 2.06 4.74 4.74 0 01-.86 1.76 4.49 4.49 0 01-1.57 1.22 5.72 5.72 0 01-2.41.46 5.36 5.36 0 01-2.28-.44 4.07 4.07 0 01-1.51-1.19 4.87 4.87 0 01-.83-1.73 8 8 0 01-.27-2.1 7.66 7.66 0 01.29-2.1 4.93 4.93 0 01.89-1.79 4.42 4.42 0 011.57-1.25 5.94 5.94 0 014.63 0 4.19 4.19 0 011.53 1.24 4.9 4.9 0 01.83 1.77 8.6 8.6 0 01.25 2.09zm-2.38 0a10.47 10.47 0 00-.09-1.36 4.34 4.34 0 00-.37-1.25 2.41 2.41 0 00-.77-.9 2.08 2.08 0 00-1.27-.35 2.37 2.37 0 00-1.33.34 2.42 2.42 0 00-.83.88 3.66 3.66 0 00-.43 1.23 8.21 8.21 0 00-.12 1.41 10.67 10.67 0 00.1 1.42 3.54 3.54 0 00.38 1.19 2.24 2.24 0 00.8.82 2.69 2.69 0 001.36.3 2.33 2.33 0 001.29-.32 2.36 2.36 0 00.78-.85 4 4 0 00.4-1.19 8.84 8.84 0 00.1-1.37zm7.92 5.6a4 4 0 01-1.65-.28 2.22 2.22 0 01-.95-.77 2.67 2.67 0 01-.46-1.09 6.49 6.49 0 01-.12-1.26V9.75h-1.55V8.07h3.87v7.11a6.44 6.44 0 000 .81 1.29 1.29 0 00.21.59 1 1 0 00.47.36 2.31 2.31 0 00.83.12 4.28 4.28 0 001.33-.26 4.2 4.2 0 001.52-.94V9.75h-1.36V8.07h3.7v9h1.51v1.38a5.08 5.08 0 01-1.18.32 6.22 6.22 0 01-.93.09 2 2 0 01-1.18-.29 1.52 1.52 0 01-.46-1.08 5.39 5.39 0 01-1.94 1.19 6 6 0 01-1.66.29m7.7 2.67h1.59V9.75h-1.59V8.09h3.77v1a4.71 4.71 0 011.56-.87 5.26 5.26 0 011.71-.31 4.25 4.25 0 012 .42 3.67 3.67 0 011.29 1.15 4.66 4.66 0 01.69 1.69 9.67 9.67 0 01.21 2 10.25 10.25 0 01-.24 2.29 5.2 5.2 0 01-.76 1.81 3.61 3.61 0 01-1.37 1.2 4.41 4.41 0 01-2.08.44 7.57 7.57 0 01-1.36-.15 5.49 5.49 0 01-1.56-.55v3.39h1.7v1.68h-5.6v-1.63zm6.44-4.51a2.79 2.79 0 00.94-.17 1.73 1.73 0 00.8-.59 3 3 0 00.56-1.18 7.5 7.5 0 00.21-1.94 6.34 6.34 0 00-.19-1.72 3 3 0 00-.5-1.06 1.53 1.53 0 00-.76-.53 3 3 0 00-1-.14 2.94 2.94 0 00-.72.08 5.5 5.5 0 00-.72.23 4.92 4.92 0 00-.65.32 4.15 4.15 0 00-.49.35v5.63a3.46 3.46 0 00.48.26 3.79 3.79 0 00.62.23 5.47 5.47 0 00.7.16 3.37 3.37 0 00.69.07z" fill="#009e94"/></svg>