<svg xmlns="http://www.w3.org/2000/svg" width="400" height="264" viewBox="0 0 400 264" fill="#ff0000"><path d="M374.85,33.91Q347.74,0,310,0q-26.61,0-45,17Q245.23,34.39,245.23,61A53,53,0,0,0,260,98.58q14.75,15.74,36.51,15.74,7.26,0,19.6-4.36t19.1-4.36q16.94,0,16.93,32.46,0,60.06-83.68,104.63V264q58.05-18.88,92.87-58.61Q400,161.79,400,103.66q0-38.75-25.15-69.75Zm-243.29-1Q105.45,0,66.75,0,40.64,0,20.32,18.17T0,62Q0,84.29,15,99.3t37.25,15q7.24,0,19.59-4.36t19.1-4.36q17.89,0,17.9,29.55,0,38.25-25.15,65.88-17.42,18.41-58.53,41.66V264Q82.23,247.53,118,204.9q37.72-44.57,37.72-102.21,0-39.7-24.18-69.75Z"/></svg>