<svg xmlns="http://www.w3.org/2000/svg" viewBox="0 0 282.62 50"><defs/><path d="M0 5.61q0 12 .08 24a17.64 17.64 0 00.36 2.41c1.65 7.34 9 17.75 21.07 17.86C33.22 50 41 40.34 42.8 32.78a17.25 17.25 0 00.44-3.13l-.16-24h-9.29l.13 23.89a10.4 10.4 0 01-.48 1.44 12.87 12.87 0 01-11.7 7.68 12.92 12.92 0 01-11.61-8.24 11.2 11.2 0 01-.64-2.65V5.64zM89.53 30.39h4.31A22.45 22.45 0 0072.67 5.57c-13-.49-23.61 10.8-22.9 23.36.69 12.18 11.85 20.91 23 20.8 8.37-.09 16.23-5.18 20.43-13.14h-9.49c-.75.87-4.76 5.3-10.89 5.35s-13.1-4.5-14.32-11.53h31zM71.94 14.33c5.78.09 10.07 4.17 12 8.54h-3.19a10.14 10.14 0 00-17.82 0H59.4a13.69 13.69 0 0112.54-8.54zM116.61 49.76h-11.33V31.54h11.33v3.94h-6.18v2.87h5.73v3.95h-5.73v3.44h6.18v4zM138.14 49.76h-6.76l-7-12.84h-.11c.17 2 .25 3.56.25 4.63v8.21H120V31.54h6.74l6.94 12.66h.08a71.2 71.2 0 01-.18-4.43v-8.23h4.6v18.22zM153.61 49.76h-11.34V31.54h11.34v3.94h-6.18v2.87h5.72v3.95h-5.72v3.44h6.18zM162.11 43.12v6.64H157V31.54h6.26q7.78 0 7.78 5.38a5.36 5.36 0 01-3.24 4.9l5.57 7.94h-5.86l-4.05-6.64zm0-3.7h1q2.7 0 2.7-2.28c0-1.26-.88-1.88-2.65-1.88h-1v4.16zM182.72 39.08H191v9.82a23.62 23.62 0 01-7.38 1.1 9.13 9.13 0 01-6.82-2.44c-1.6-1.63-2.41-4-2.41-7a8.91 8.91 0 012.61-6.83q2.64-2.46 7.39-2.46a16.83 16.83 0 013.4.33 14.23 14.23 0 012.79.82l-1.64 3.86a10.44 10.44 0 00-4.53-1 4.42 4.42 0 00-3.49 1.4 5.9 5.9 0 00-1.24 4 6 6 0 001.12 3.9A4 4 0 00184 46a10 10 0 002.12-.21v-2.91h-3.41v-3.8zM206 49.76h-11.17v-18H206v3.91h-6.09v2.83h5.64v3.9h-5.64v3.4H206v4zM217.6 49.76h-5.08v-14h-4.6v-4h14.26v4h-4.58zM224.87 31.74h4.53v7.73c0 .82-.07 2.47-.21 4.94h.1l7.51-12.67h6.28v18h-4.51v-7.53c0-1.14.08-2.85.24-5.12h-.11l-7.56 12.67h-6.27v-18zM263.6 49.76h-5.75l-5.59-9.14v9.14h-5.11v-18h5.11v8.73l5.37-8.73h5.59l-5.81 8.6z"/><path d="M277.06 49.76l-.93-3.38H270l-.95 3.38h-5.59l6.14-18.09h6.78l6.22 18.09zm-2-7.38l-.81-3a93.2 93.2 0 01-1.22-4.79q-.12.61-.45 2.07c-.23 1-.74 2.86-1.52 5.68h4zM121.43 5.57v11a7.15 7.15 0 01-2.12 5.54 8.71 8.71 0 01-6.12 2 8.61 8.61 0 01-6-1.91 7 7 0 01-2.1-5.48V5.58h5.19v10.69a4.23 4.23 0 00.76 2.81 3.37 3.37 0 004.52 0 4.48 4.48 0 00.71-2.83V5.59h5.17zM141.75 23.79h-5.83l-3.77-7-1.52.87v6.09h-5.19V5.57h5.19v7.91a21.84 21.84 0 011.57-2.33l4-5.58h5.65l-6 8.16zM149 17.16v6.63h-5.16V5.57h6.26q7.78 0 7.78 5.38a5.36 5.36 0 01-3.24 4.9l5.56 7.94h-5.84l-4.05-6.63zm0-3.71h1c1.8 0 2.7-.75 2.7-2.28 0-1.25-.88-1.88-2.65-1.88h-1z"/><path d="M173.64 23.79l-.94-3.42h-6.21l-1 3.42h-5.68l6.23-18.3H173l6.31 18.3zm-2-7.45l-.82-3a94.43 94.43 0 01-1.24-4.85c-.08.43-.23 1.13-.46 2.1s-.74 2.88-1.54 5.74zM178.56 2a1.8 1.8 0 01.61-1.46 2.42 2.42 0 011.62-.54 2.38 2.38 0 011.64.53A1.85 1.85 0 01183 2a1.76 1.76 0 01-.61 1.41 2.38 2.38 0 01-1.64.53 2.42 2.42 0 01-1.62-.51 1.76 1.76 0 01-.57-1.43zm2.79 21.82V5.57h5.19v18.22zM184.82 2a1.83 1.83 0 01.6-1.46 2.47 2.47 0 011.65-.54 2.42 2.42 0 011.66.54 1.84 1.84 0 01.61 1.46 1.79 1.79 0 01-.61 1.41 2.42 2.42 0 01-1.66.53 2.5 2.5 0 01-1.66-.51 1.83 1.83 0 01-.59-1.43zM207 23.79h-5.19v-7.43h-6v7.43h-5.18V5.57h5.18v6.75h6V5.57H207zM219.66 9.34a3.33 3.33 0 00-2.87 1.44 6.69 6.69 0 00-1 4c0 3.51 1.39 5.27 4.19 5.27a9.24 9.24 0 002.46-.34c.79-.23 1.58-.5 2.38-.81V23a13.8 13.8 0 01-5.41 1 8.81 8.81 0 01-6.63-2.39c-1.53-1.6-2.31-3.91-2.31-6.92a10.72 10.72 0 011.12-5 7.67 7.67 0 013.21-3.29 10.1 10.1 0 014.94-1.15 14 14 0 015.91 1.28l-1.57 3.88a19.12 19.12 0 00-2.12-.81 8.24 8.24 0 00-2.3-.26zM242.15 17.74a5.26 5.26 0 01-2.08 4.48 9.6 9.6 0 01-5.91 1.56h-5.64V5.56h5.18V12h.3a10.7 10.7 0 016.09 1.44 4.83 4.83 0 012.06 4.3zM233.71 20h.29c2 0 3-.72 3-2.15s-1-2.05-3.06-2.05h-.21zM261.89 23.79h-5.84l-5.68-9.24v9.24h-5.18V5.57h5.18v8.83l5.47-8.83h5.67l-5.89 8.69z"/><path d="M275.55 23.79l-.94-3.42h-6.21l-1 3.42h-5.68L268 5.49h6.89l6.31 18.3zm-2-7.45l-.82-3a68.08 68.08 0 01-1.24-4.85c-.08.43-.24 1.13-.46 2.1s-.74 2.88-1.54 5.74z"/></svg>