<svg xmlns="http://www.w3.org/2000/svg" viewBox="0 0 116.9 34.92"><defs/><path fill="#fff" d="M15.94 2.18l.58-.05-.36-.71-.22.76zM4.53 25.4c.12-.07.13-.19 0-.34l-.12-.21-.37.22.13.22a.22.22 0 00.36.11zM23.68 3.42l.53.25.04-.8-.57.55zM20.12 32.19l-.3.05.18 1.19.3-.06a.6.6 0 10-.22-1.18zM11.26 31.1a.56.56 0 00-.79.28.6.6 0 001.09.49.55.55 0 00-.3-.77zM6.9 29.22l.28-.75-.71.35.43.4zM15.24 33.11l.58.07-.21-.77-.37.7zM28.4 27.76a.58.58 0 10.83 0 .55.55 0 00-.83 0zM10.19 4.34a.56.56 0 00.26-.82.56.56 0 00-.84-.23l-.27.14.58 1.06z"/><path d="M17.46.29a17.17 17.17 0 1017.17 17.17A17.19 17.19 0 0017.46.29zm12.72 9.18a1.34 1.34 0 00.55.46l-.35.23a1.51 1.51 0 01-.57-.52A1 1 0 0130 8.18a1 1 0 011.45.42 1.42 1.42 0 01.23.67l-.35.23a1.31 1.31 0 00-.2-.65.58.58 0 10-1 .62zM29.5 6.1l-.2 1.53.87-.77.32.36-1.43 1.26-.26-.3.2-1.6-.92.81-.29-.39 1.42-1.26zm-.71-.72l-.23.27-.69-.6-.26.3.66.57-.27.27-.65-.57-.3.35.7.6-.23.27-1.02-.92 1.24-1.44zm-2.17-1.73a1.63 1.63 0 01.54.54l-.22.35a1.74 1.74 0 00-.5-.54.61.61 0 00-.91.12.57.57 0 00.24.83.63.63 0 00.3.12l.12-.19-.19-.15.19-.29.63.41-.42.65a1.25 1.25 0 01-.82-.22 1 1 0 01-.41-1.44 1 1 0 011.45-.19zm-1.94-1.08v2.08l-.46-.22v-.4l-.77-.36-.31.33-.46-.22 1.51-1.39zM22 1.52a1.5 1.5 0 01.57.32l-.1.35a1.66 1.66 0 00-.53-.33c-.16 0-.29 0-.31.08-.08.28.87.46.69 1.1-.1.35-.45.47-.86.36a1.36 1.36 0 01-.61-.4l.15-.36a1.14 1.14 0 00.56.41c.18.05.29 0 .32-.09.08-.3-.88-.46-.69-1.11.05-.32.38-.45.81-.33zm-1.15-.28l-.06.35-.9-.15-.06.4.86.14-.06.34-.86-.14-.07.45.92.15-.06.35-1.38-.23.3-1.9zM17.17.89L19 1v.35h-.69v1.56h-.48l.06-1.55h-.69zm-.78.11l1 1.83h-.51l-.18-.37-.85.07-.11.39h-.5l.61-2zm-1.23 0l.07.35-.68.13.3 1.52-.46.1-.3-1.53-.68.13-.07-.34zm-2.86.67a1.51 1.51 0 01.7-.02l.12.35a1.51 1.51 0 00-.63 0c-.16.05-.24.14-.21.23.09.27 1-.1 1.19.53.11.35-.11.64-.52.77a1.18 1.18 0 01-.71 0l-.12-.39a1 1 0 00.69 0c.17-.05.25-.14.21-.25-.1-.3-1 .11-1.19-.53-.16-.22.05-.51.47-.65zM9.5 3a1 1 0 011.38.34c.26.48.15 1-.52 1.36l-.69.3-.91-1.65zm-1.21.72l.2.28-.73.54.24.27.7-.51.21.28-.7.51.27.37.75-.55.21.28L8.29 6 7.17 4.48zM6.8 4.77L7 5l-.5.48 1.1 1.15-.34.37-1.07-1.18-.5.47L5.45 6zM5.17 6.38L6.6 7.63 6.28 8 4.85 6.74zM3.6 8.4l1.54-.16-1-.67.28-.39L6 8.27l-.22.33-1.61.16 1 .7-.27.39-1.55-1.09zm-1.2 2.18l1 .48a.43.43 0 00.6-.22.45.45 0 00-.21-.65l-1-.47L3 9.3l1 .48A.81.81 0 014.34 11a.82.82 0 01-1.18.48l-1-.48zm-.62 3.68v-.66l.39.53.63-.21-.38.53.38.55-.63-.21-.4.53v-.65l-.62-.2zM17.46 3.51a14 14 0 11-13.95 14 14 14 0 0113.95-14zM1 17.88l1.9-.08v.48l-1.9.07zm.26 2.56l1-1.22-1.21.18-.05-.47 1.89-.28.06.44-1 1.17 1.15-.17.07.47-1.89.28zM1.57 22l1.49-.44-.2-.67.33-.1.53 1.78-.33.1-.2-.67-1.49.44zm.5 1.53l1.74-.77.56 1.24-.32.14-.37-.83-.36.16.35.79-.32.15L3 23.6l-.42.18.37.86-.31.13zm1.39 2.73c.24-.38.52-.63.39-.85l-.07-.12-.67.39-.24-.41 1.64-1 .43.73a.57.57 0 01-.15.81.5.5 0 01-.57 0c0 .21-.15.38-.5.9zm1.69 2.29l-.25-.32.3-1.58-1 .76L4 27l1.48-1.19.28.34-.28 1.52.86-.67.3.37zm1.48 1.43l.15-.39-.63-.59-.36.18-.37-.34 1.86-.87.4.38-.67 2zm1.24 1l-.38-.29.92-1.25-.55-.44.2-.28 1.5 1.1-.21.28-.56-.41zm.93.61l1-1.63.4.24-1 1.63zm3.21.56a1 1 0 01-1.4.44 1 1 0 11.81-1.78 1 1 0 01.58 1.27zm1.59 1.45l-.69-1.46-.32 1.18-.46-.13.51-1.83.42.11.67 1.39.27-1.19.45.13-.45 1.83zm2.44.39l-.11-.4-.85-.1-.19.36-.49-.06 1-1.8.55.07.61 2zm.89 0v-1.9h.47v1.55h1V34zm3.48-.26l-.77.15-.35-1.88.83-.16a1 1 0 011.21.75c.09.53-.17.99-.92 1.12zm1.59-.36l-.58-1.81 1.32-.43.1.33-.86.28.12.38.83-.26.1.33-.82.27.14.43.88-.29.11.34zm2.48-.9l-1.65-1.36.47-.21.91.77v-1.19l.47-.21v2.12zm1.29-.68l-1-1.61 1.17-.74.18.3-.76.48.21.34.73-.46.19.29-.74.46.25.39.78-.49.22.25zm1.6-1.05l-1.19-1.48.37-.3 1 1.21.76-.61.22.27zm2.18-1.92a1 1 0 110-1.46 1 1 0 01-.01 1.46zm1-1.25L29 26.48l.49-.69a.57.57 0 01.82-.2.59.59 0 01.11.85l-.22.31.63.44zm1.85-3L31.37 24l.3.73v.06l-.76.19 1.06.54-.22.42-1.75-.87.18-.37.91-.22-.35-.87.19-.37 1.69.86zm.42-1l-1.8-.62.45-1.31.33.12-.29.86.38.12.28-.82.33.12-.28.82.43.15.3-.88.33.11zm.91-3.35l-1.4.8 1.2.24-.09.46-1.87-.37.08-.42 1.35-.8-1.14-.23.09-.47 1.87.37zm.2-2v.48l-1.55-.09v.69h-.35l.11-1.85h.34v.69zm-.32-3.72l-.61.2v.65l-.39-.53L32 15l.39-.53-.39-.55.63.21.4-.53v.65zM32.26 10l-.37.63.72.12.24.52-1.23-.25-.81.38-.2-.42.81-.39.58-1.07z" fill="#fff"/><path d="M29.68 26.16l-.09.13.36.25.12-.18c.13-.17.11-.28 0-.36s-.24 0-.39.16z" fill="#fff"/><path d="M17.46 0a17.46 17.46 0 1017.46 17.46A17.48 17.48 0 0017.46 0zm17.17 17.46A17.17 17.17 0 1117.46.29a17.19 17.19 0 0117.17 17.17z" fill="#00437b"/><path d="M15.52 18.48l.25-.16.19-.15s.25-.19.1-.16a.82.82 0 00-.34.21l-.26.26s0 .04.06 0zM15.52 18.66a.1.1 0 00.07 0s.05-.07 0-.08h-.14c-.08 0 .04.08.07.08z" fill="#fff"/><path d="M31.12 17.46a13.66 13.66 0 10-13.66 13.66 13.68 13.68 0 0013.66-13.66zm-21.6 7.43v-2.5h16v2.5zm15.94.29a2.77 2.77 0 01-1.33 1.91v-1.91zm-3.85 0h1.82v2.33a8.69 8.69 0 01-1.82.63zm3.86-6.07l-2.36-.19h-.73l-1-.06h-.69a2 2 0 00-.27.17l-.21.07a.74.74 0 00-.09.12s-.17.18-.2.19a1 1 0 01-.19.1c-.08 0-.1 0-.14.11s0 .17-.29.35a.5.5 0 01-.41 0 .25.25 0 000 .09 1.42 1.42 0 01-.25.24h-.36c-.04 0-.08-.06-.09-.06v.09a.56.56 0 01-.1.3 1 1 0 01-.16.13l-.23.07h-.14a.41.41 0 01-.21-.08l-.35-.14-.17.07-.25.08h-.21a.76.76 0 01-.28-.1.84.84 0 01-.3-.32h-.13a1.13 1.13 0 01-.41 0s-.24-.12-.3-.26-.06-.08 0-.09a1.09 1.09 0 00-.17 0h-.22a.6.6 0 01-.13-.08l-.23-.18a.41.41 0 01-.09-.18.15.15 0 01-.1 0h-.06a.2.2 0 01-.07 0h-.23s-.15-.09-.15-.11a.52.52 0 01-.09-.17l-.1-.15a1.27 1.27 0 000-.14h-1.13L11 18.9h-.69L10 19H9.58a1.61 1.61 0 010-.22H11.37s.07 0 .2-.1.19-.22.21-.23a2.66 2.66 0 01.22-.35 1.28 1.28 0 00.23-.14h.07c-.02 0-.15.16-.16.16l-.12.12-.07.07-.06.06-.12.13a.35.35 0 00-.08.11v.05h.08a.6.6 0 00.08-.08l.17-.15.07-.06.21-.18a1.74 1.74 0 01.24-.22l.34-.25.16-.11h.05l-.38.35-.27.25-.23.25a1.09 1.09 0 00-.1.11h.14l.12-.11.11-.1.46-.42.19-.14a2.65 2.65 0 01.22-.17l.2-.15-.15.15-.14.13L13 18l-.11.13a.58.58 0 01-.11.1.81.81 0 00-.16.17l-.08.1h.06a.55.55 0 00.16-.11l.32-.29.32-.27.1-.08s.08-.08.08-.05v.05l-.17.19-.09.09a.23.23 0 010 .07l-.12.16s-.06.07 0 .08.1-.09.11-.1l.16-.14.25-.18.12-.09.15-.11s.11-.09.11-.07l-.1.13-.16.14-.12.12a.13.13 0 010 .05s-.06.06-.08.06a.36.36 0 000 .09l.09-.08.12-.11L14 18a.28.28 0 00.09-.06l.14-.1.08-.07h.08s.07-.07.07-.05a1.14 1.14 0 00-.11.11 1.79 1.79 0 00-.23.25 1.45 1.45 0 01-.17.18s-.13.1-.11.11h.06c.06 0 .15-.1.15-.11l.14-.11a.64.64 0 01.13-.1l.22-.18.25-.2.29-.21-.14.14a1.14 1.14 0 01-.11.11l-.21.17-.22.22-.09.1-.16.14v.06l.2-.11a3.22 3.22 0 00.29-.25 1.57 1.57 0 00.19-.15l.19-.14.14-.08h.06c.01 0 0 0 0 0l-.17.14-.13.11-.15.15-.12.12s-.12.13-.16.14a.71.71 0 00-.12.15H14.49l.13-.14.38-.32a1.18 1.18 0 00.1-.02l.32-.24a1.73 1.73 0 01.2-.14h.05l-.22.21v.05l-.23.2-.09.08s0 .05-.06.06l-.1.07v.09c0 .03.06 0 .08 0l.1-.05.18-.15.15-.09.16-.11.1-.05.11-.07.1-.06h.06-.08a.77.77 0 00-.13.12l-.09.07a2.09 2.09 0 01-.28.24s-.11.05-.11.08.1 0 .12-.05l.1-.06.27-.21.13-.11a.23.23 0 01.1 0h.15l.1.06a.94.94 0 00.15.08h.2-.09l-.12.09s-.15.09-.16.12 0 .06 0 .06h.19l.08-.06.15-.08h.05l-.13.11-.06.06s-.08.05-.08.08v.05c0 .05.06 0 .09 0l.09-.05h.21l-.09.07c-.01.02-.07.08-.1.09s-.07 0-.08.06v.05a.06.06 0 00.06 0l.13-.06h.18s.06 0 0 0l-.11.06-.11.1c-.01 0 0 0 0 0h.22a.22.22 0 01.1 0h.09l-.21.16h-.05.45l-.1.07-.09.06-.07.06s-.05 0-.05.05H17.24l.11-.05a.19.19 0 00.1 0h.06c.06 0 0 0 0 0l-.08.05a.3.3 0 01-.13.09.26.26 0 00-.1.07v.07h.22l.17-.07h.05c.05 0-.06.06-.06.06l-.16.1-.13.06h-.06.11a3 3 0 00.29-.09.67.67 0 00.14-.07h.06c.06 0 0 0 0 0a.13.13 0 01-.05.06l-.1.06v.05h.07a.31.31 0 00.1 0l.14-.08.08-.06.06-.07c.01 0 0-.05 0 0a.07.07 0 010 .06.13.13 0 010 .09v.06c0 .06 0 0 0 0s.06-.05.08-.05l.1-.08v-.06a.17.17 0 000-.07h-.05a.09.09 0 00-.05 0 .28.28 0 010-.1v-.08a.46.46 0 00-.16-.14l-.42-.27a.76.76 0 00-.2-.12.18.18 0 01-.08 0h-.09l-.26-.35h.14l-.11-.09L17 18l.09-.1.17-.11.18-.11.11-.06v.05l-.16.17-.13.1v.05c0 .05 0 0 0 0h.16a.36.36 0 01.13-.09l.11-.05-.12.11a.32.32 0 01-.06.07l-.09.07a.74.74 0 01.16.11l.3.23.27.21a2.85 2.85 0 01.36.3l.12.12.17.2s.1.19.13.21.09.18.15.23a.36.36 0 00.09.09.16.16 0 00.15 0l.13-.09s.05 0 0-.05 0 0-.08 0h-.12s.07 0 .1-.05l.14-.08.08-.1v-.06c0-.01-.1.07-.12.07h-.27s.05 0 .06-.05a.89.89 0 00.16-.09l.16-.14v-.12l-.09.08-.15.12a.74.74 0 01-.13.08h-.11a.13.13 0 01.06 0l.15-.11a1 1 0 00.11-.1V18.96v-.07h-.06l-.16.13a1.09 1.09 0 01-.11.1l-.19.06.1-.08.2-.15a1.24 1.24 0 00.11-.23.9.9 0 00-.26-.58 1.84 1.84 0 00-.24-.2l-.54-.38c-.04-.03-.26-.18-.58-.49a.89.89 0 00-.21-.37s-.09 0 .06-.06a.44.44 0 01.13-.06l.13-.06s.05-.05.09-.05a1.74 1.74 0 01-.14.12.45.45 0 00-.13.1v.06a.16.16 0 00.1 0h.07l.16-.06.11-.06a.11.11 0 01-.06.06l-.22.16v.06h.33c-.01 0-.05 0-.08.06s-.09.08-.09.1h.37a.35.35 0 01-.09.07s-.13.09-.13.11 0 0 .06 0H18.39a.38.38 0 00-.11.08l-.07.06a.71.71 0 00.2 0l.15-.07s.05 0 0 0l-.13.1s-.07 0-.08.06l.06.06.18-.06.1-.05h.1s.05 0 0 0l-.12.12-.11.09h-.08s.36.19.37.21a1.92 1.92 0 00.15.14s0 .06.06.06h.19c.01 0 .08-.06.07-.07h-.18l.13-.07.13-.09.09-.08s0-.05.06-.07a.67.67 0 00.07-.11v-.07.16c0 .02-.05.07-.07.09a.6.6 0 00-.06.11v.06a.08.08 0 00.07 0 .22.22 0 00.08-.05s0-.08.05-.08a.3.3 0 010 .1l-.08.13-.11.08-.11.06s-.13.05-.12.07 0 0 .07 0H19.65l.05-.22h.07a1.13 1.13 0 01-.11.11l-.11.07-.13.06v.07c0 .07.09 0 .11 0h.14a.42.42 0 01.12 0 .46.46 0 01-.07.07l-.14.08h-.09v.05c0 .05 0 0 .07 0a.32.32 0 00.15-.06H19.93l-.09.1-.1.07h-.1-.06c-.06 0 0 0 0 0h.33l.14-.09H20.17a.23.23 0 010 .09s-.15.15-.17.15l-.09.05-.14.06h.06a.2.2 0 00.11 0 .42.42 0 00.15-.06l.11-.08a.61.61 0 00.13-.15.56.56 0 000-.13.74.74 0 000-.12l-.1-.28a5.92 5.92 0 00-.21-.58.93.93 0 01-.07-.2l-.1-.15-.35-.3a2.43 2.43 0 00-.35-.2c-.09 0-.39-.22-.41-.22a4.39 4.39 0 01-.44-.21l-.46-.2-.17-.15a2.56 2.56 0 00-.36-.17 1.26 1.26 0 00-.46-.1 1.54 1.54 0 00-1 .15v-.06h-.07c-.07 0-.45.24-.47.25l.07-.06s.15-.16 0-.11l-.47.25-.14.06c-.01 0 0 0 0 0l.13-.1s.13-.09.11-.14 0 0-.09 0l-.24.1a.42.42 0 01-.15.06l.14-.13s.06 0 0-.06a.07.07 0 00-.08 0 .75.75 0 00-.13.06l-.13.08.09-.1s.06 0 .05-.07 0-.05-.07 0l-.24.08s-.07 0 0 0 .12-.08.11-.11a.41.41 0 00-.17.07l-.15.08-.08.05v-.05a.18.18 0 000-.08.19.19 0 00-.15 0l-.15.06v-.06s.05 0 0 0h-.11l-.16.07h-.07v-.08h-.17l-.12.06h-.07v-.06c0-.01 0 0-.07 0h-.94l-.39.16h-.11l.11-.1s.16-.12.13-.14a.25.25 0 00-.14 0l-.24.11-.22.1.17-.15s.09-.08.08-.09h-.08l-.11.05-.43.2.07-.07.17-.16s.07 0 0 0a.2.2 0 00-.13 0l-.12.06-.22.1-.14.07.06-.09.12-.1.07-.06s.05 0 0 0a1.09 1.09 0 00-.23.09l-.35.19.14-.14s.12-.1.08-.11h-.13a1.88 1.88 0 00-.24.14s-.17.11-.19.1l.07-.07.09-.1s.13-.1 0-.1a.27.27 0 00-.15 0s-.09.06-.1 0v-.26h1.15a5.37 5.37 0 00.66 0c.49 0 1.07.07 1.36.09a4.21 4.21 0 001.63-.13s-.09-.25 0-.34h.16a1.43 1.43 0 00.56-.17c.33-.16.51-.32.58-.32h.33c.15 0 .36.08.59.12s.81.06 1 .07a4.28 4.28 0 01.5.08 5.23 5.23 0 00.78.31c.36.11.51.16 1 .28a1.63 1.63 0 00.33.06 8.54 8.54 0 01.92.07h2.17c.17 0 .93 0 1.08-.05h1.15v.24l-.1.08h-.05l.08-.1s.05-.11-.08-.06a3 3 0 00-.3.2s.14-.13.11-.16H24.1a1.75 1.75 0 00-.7.28l.17-.21a.46.46 0 00-.23 0 2 2 0 01-.33.17s.11-.16 0-.16a1.88 1.88 0 00-.43.22s.2-.18.16-.19a.35.35 0 00-.18 0l-.5.26.2-.19c.01-.02 0-.06 0-.07a.15.15 0 00-.08 0l-.17.08c-.05 0-.51.33-.55.34l-.14.07a3.23 3.23 0 00.49-.46.17.17 0 00-.11 0 2.33 2.33 0 00-.3.18 5.57 5.57 0 01-.55.38c-.05 0 .26-.26.26-.26l.19-.17s.11-.14-.07-.09l-.16.1-.29.15a1.25 1.25 0 00.2-.2v-.06l-.13.06-.18.12s-.05 0 0 0 .08-.09.08-.11 0 0-.05 0l-.11.08s0-.07-.07-.07-.09 0 0 0a.84.84 0 01.14.27l.05.21s-.17-.3-.2-.32-.16-.22-.26-.21h-.28v-.06c0-.06-.19 0-.21 0s0-.07 0-.08h-.26l.1-.08s0-.07-.06-.07a.63.63 0 00-.23.08h-.05l.06-.1a.08.08 0 000-.07.17.17 0 00-.14 0l-.19.08s.06 0 .06-.07v-.08a1.43 1.43 0 00-.2-.05L18.4 15h-.14a.13.13 0 01-.08 0l-.18-.14h-1.41l-.24-.05s-.16 0-.19-.06h-.58l-.09.06a.16.16 0 00-.05.08.47.47 0 000 .09.56.56 0 010 .07l-.07.05-.07.05h-.06a.77.77 0 01-.15.06.72.72 0 01-.17 0 .27.27 0 01-.11-.06h-.25a.61.61 0 00.08.25.39.39 0 00.17.15.67.67 0 00.2.08h.15a.49.49 0 00.17 0h.47l.14-.05h.08a1 1 0 00.2-.12l.11-.13.11-.2a.74.74 0 000-.15 1.8 1.8 0 00.05.19h.19l-.06.05-.14.12s-.09.06-.09.08v.05h.1l.13-.07h.05a.48.48 0 01-.09.13v.06h.1l.12-.08.08-.05.1-.07-.1.14v.07a.5.5 0 00.12-.2 1.19 1.19 0 01.24-.13l-.07.08-.07.11a.06.06 0 00.06 0 .45.45 0 00.12-.06l.15-.1a.58.58 0 00.14-.08l-.11.11-.07.08v.05c0 .05 0 0 .05 0h.14l.16-.07-.1.07h-.06v.06c0 .06 0 0 0 0h.28l-.07.07a.08.08 0 000 .05l.12.09a.35.35 0 00.09.07l.12.09.14.07.18-.06h.1l-.07.07h-.06.31l-.06.06v.05l.18-.07h.12l.04.19-.06.05h-.06v.05a.07.07 0 00.08 0 .88.88 0 00.14-.07l.16-.08.09-.05-.08.08-.08.08s0 .05-.06.06h.09l.13-.07s.08-.06.1-.06h.13a.25.25 0 01-.08.07l-.09.08-.05.05h.07l.1-.06s.08 0 .08-.05h.05l.09-.07v-.05l-.12.12v.05l-.1.1s0 .05-.06.05h.05l.17-.09.12-.09.1-.09h.05v-.06.05a.17.17 0 010 .07l-.1.1-.11.11-.11.09h-.06a.76.76 0 00.09.09.6.6 0 01.13-.09l.15-.09s0-.05.05 0v.22l-.07.1-.09.1c-.01 0 0 0 0 0v.05h.05l.06-.05a1.54 1.54 0 00.13-.12.33.33 0 00.06-.06 2.14 2.14 0 00.13-.22v-.08h-.1c-.01 0 0 0 0 0a.74.74 0 000-.14.08.08 0 000-.06 1.15 1.15 0 00-.13-.24.82.82 0 01-.1-.17l.09.1.11.11.08.08a.79.79 0 01.1.16 1.38 1.38 0 01.06.16.73.73 0 010 .16 1 1 0 010 .28 2.21 2.21 0 00-.11.22.41.41 0 000 .08v.13c0 .01 0 0 0 0a.26.26 0 010-.09.16.16 0 000-.07v-.16a.47.47 0 000-.17s0-.09-.05-.08a.1.1 0 00-.06.05l-.15.12-.1.09.09.02s-.06 0-.06.06a.46.46 0 000 .09h.05a.23.23 0 00.1-.07l.09-.08.07-.07-.09.14v.06l-.08.07h-.06a.48.48 0 000 .12h.06v.07c0 .02-.09.07 0 .19s0 .14.09.24.06.15.07.16a.1.1 0 00.05.08.1.1 0 00.08 0h.06s-.09.08-.09.11.09-.06.09-.07v.05c0 .05 0 0 0 0l-.05.08a.07.07 0 000 .06h.05v.06l-.07.06-.05.07a.08.08 0 000 .05H20.46a.51.51 0 00.12-.15c0-.07.05-.14 0-.17v-.01a.43.43 0 000-.11 2.69 2.69 0 01-.13-.32l-.06-.16v-.13s.08-.05.11-.05h.08s.06-.05.09-.05l-.08.09-.07.1c-.01.01 0 0 0 .07s0 0 .06 0l.09-.06s.06 0 .08-.05l.08-.05v.05a.33.33 0 00-.06.06l-.11.13v.05h.12a.32.32 0 00.08-.06l.12-.08.08-.05s0-.05.05-.05l-.05.08-.08.08s-.19.2-.21.2 0 0 0 .05A.48.48 0 0021 18l.09-.05.16-.11.12-.08a.07.07 0 010 .06 1 1 0 00-.15.13h-.05l-.09.1-.13.09h-.05.06l.12-.08.14-.08.15-.12.16-.11.1-.06h.11s-.07 0-.08.07a.29.29 0 01-.07.08l-.09.08a.93.93 0 01-.14.14l-.14.13s-.08.09-.1.09l-.12.1h.06l.14-.09.2-.14h.09a.33.33 0 01.1-.06l.15-.12.09-.07.16-.13.06-.07c.01 0 .09-.08.11-.08l-.13.14a1 1 0 01-.14.15l-.23.19-.14.12a.12.12 0 000 .05l-.05.06v.06c0 .06.06 0 .08 0l.08-.05.15-.09.12-.1.1-.09.14-.1h.15s0 .05-.05.06a.8.8 0 01-.13.13.76.76 0 00-.09.09l-.05.05-.09.07-.12.09h-.05s-.06 0 0 .06h3.24s.72 0 .74.05-.2.55-.22.55zm-15.58-.7l.52-.44a.21.21 0 01.07-.07h.07a3.69 3.69 0 00-.34.35s-.14.13-.18.19a.3.3 0 01-.18.11zm3.56-1.25a2.33 2.33 0 01.27-.21l.15-.08h.05c-.02 0 0 .07-.06.07a1.79 1.79 0 00-.24.12s-.1.09-.14.09-.07.04-.03.01zm-.12-.09l-.21.13s-.06 0 .05-.12a2.09 2.09 0 01.22-.16l.14-.09h.05v.08a.15.15 0 01-.06.05zm.35.16s.1-.12.12-.12h.14a.66.66 0 01-.13.08 1.12 1.12 0 01-.16.1zm.15.28a1.1 1.1 0 01.11-.12s.09-.07.12-.07h.08a.12.12 0 010 .09l-.18.1a1 1 0 01-.16.12zm-1 0l-.29.2v.08h-.13l.11-.09s.15-.16.19-.16a1.28 1.28 0 00.17-.1s-.02.07-.05.08zm-2.12.75s.29-.21.33-.22a1.72 1.72 0 00.23-.17l.23-.15.13-.1-.25.25-.29.24-.2.17-.18.14s-.19.11-.25.09.23-.23.25-.24zm-.3.16s-.1.1-.15.1h-.13l.24-.24a2.26 2.26 0 01.21-.16s.35-.29.37-.29.09-.07.12-.08l-.08.1-.33.33zm.31.13a1.19 1.19 0 00.16-.1l.27-.2a3.2 3.2 0 01.27-.22l.17-.14.29-.21.15-.12a3.59 3.59 0 01-.32.35l-.39.32-.21.2v.06H11.28a.6.6 0 00.12-.11l.25-.2.26-.22c.05-.03.23-.19.26-.2s.06-.06.08 0-.07.08-.08.09l-.26.25-.27.23a3.23 3.23 0 00-.27.23l-.07.06a.25.25 0 01-.16 0 2.65 2.65 0 00-.27 0h-.21c-.02 0 .01-.04.06-.06zm3.69-1a.57.57 0 01.17-.13l.2-.14.18-.13-.25.2-.05.08zm.87 0s0-.08.08-.1.1-.08.13-.08.06 0 0 0a.22.22 0 01-.06.05s-.13.17-.15.15zm2-1v-.05l.12-.05.22-.09-.12.11s-.1.1-.15.1-.09 0-.1-.02zm.06.87l-.09.16-.19.16a.94.94 0 01-.2.16.79.79 0 01-.16.08s.11-.17.19-.2l.11-.12.27-.18s.03-.09.04-.06zm.1-1.14l-.05-.09c-.05-.09-.19.07-.19.07h-.11a1.4 1.4 0 00.16-.22l-.24.13s.17-.16.12-.19-.23.1-.26.11.12-.19.08-.22a1.6 1.6 0 00-.31-.1h.19a1.74 1.74 0 01.29.07 2.26 2.26 0 01.22.11l.15.14a1 1 0 01.13.11.67.67 0 01-.21.08zm-.81.59s-.06.15 0 .14l.17-.05.11-.08s-.11.09-.1.15 0 .1.14.07a.5.5 0 00.2-.09l-.14.19s-.09.05 0 .06h.13l.1-.05a.58.58 0 01-.08.1s-.07 0-.07.05a1.78 1.78 0 010 .2v.05a.12.12 0 00-.09 0l-.15.11c-.03.02-.18.13-.22.14s-.06 0-.08 0l.39-.34s.12-.1.06-.13-.25.11-.3.15a1.2 1.2 0 01-.21.13l.21-.27s.17-.16.13-.19-.11 0-.13 0a.81.81 0 01-.14.12v-.08c0-.03.13-.16.1-.18a.16.16 0 00-.15 0s-.09.07-.11.05 0 0 0-.08.06-.08 0 0-.16.07-.13 0a1.07 1.07 0 01.13-.04zm2.13 1.85h.14a.75.75 0 00.19-.19.93.93 0 01-.07.15.77.77 0 00-.13.12.15.15 0 00.1 0l.15-.09c.02-.01 0 .05 0 .07l-.11.1-.16.13a.7.7 0 01-.2.08 1.06 1.06 0 00.14-.15v-.06s-.11.05-.15 0h-.13s.13-.05.13-.07v-.09h-.13a.21.21 0 00-.11.05h-.12l.07-.07.14-.08.26-.16.12-.12-.09.14s-.08.11-.07.13-.02.1 0 .11zm-.27-.26l-.1.11a.41.41 0 01-.11.06h-.12l.06-.06.14-.09.19-.1zm-.19-.14a.86.86 0 01-.17.18c-.06 0-.06.05-.08.05l-.08-.05.13-.13.28-.15zm-.3-.05l-.11.1-.1.05-.07-.05.22-.16s.27-.19.26-.16a1.37 1.37 0 01-.2.22zm-.11-.17s-.11.14-.17.15a.45.45 0 01-.16 0s0-.06.05-.1l.16-.09L18 18zm-.16-.1s-.17.19-.24.19-.1 0-.06-.05h.06a.73.73 0 00.09-.1 3.18 3.18 0 00.27-.17zm1.27-.4a.21.21 0 01-.1.06s-.11-.07 0-.13l.31-.13zm.44-.16l-.11.15s-.17.19-.22.2-.15 0-.15 0a.11.11 0 01.09-.11l.18-.1zm-.45 0a.73.73 0 01-.13.1h-.08c-.03 0-.06 0 0-.06l.14-.06.18-.11zm3.18.86l.3-.23a2.4 2.4 0 01.23-.21.62.62 0 00.12-.08v.06l-.29.29-.22.21-.21.17h.15l.17-.05.23-.17.25-.29.14-.13-.2.23a2.18 2.18 0 01-.21.22 1.58 1.58 0 00-.18.15l-.08.1a2.1 2.1 0 01-.51-.05l.11-.1zm-.09-.3l.17-.12s.13-.12.15-.12.12-.11.12-.1a.56.56 0 01-.05.08l-.14.15-.12.08zm.63.45l.3-.23.22-.2.25-.23.09-.07a.11.11 0 010 .06 1.93 1.93 0 01-.27.31l-.09.08a1.3 1.3 0 01-.18.15 1.83 1.83 0 00-.16.13h.19l.13-.06.25-.2.16-.19a2.06 2.06 0 01.16-.15l.06-.05-.29.34-.18.17a2 2 0 00-.18.13s-.16.18-.19.19h-.54zm1.21-2.77s-.1.06-.11.05l.11-.1a.18.18 0 01.11 0l-.11.04zM24 18a1.81 1.81 0 00.19-.15l-.19.21s-.08.11-.08.09a.94.94 0 000-.09L24 18zm-.62.5l.27-.22.2-.14v.05c0 .05-.06.13-.1.15s-.14.12-.17.12a1.09 1.09 0 00-.15.08s-.1.07-.13.07zm.29.07l.13-.1.2-.12.12-.09.11-.12.14-.14s.08-.07.08 0v.06l-.11.14-.11.12-.19.18-.15.12-.07.05H23.59zm.56-2.86l.05-.06h.13s-.16.06-.14.04zM24 18.62a1 1 0 01.17-.11l.22-.16.13-.13.18-.13a1.13 1.13 0 00.11-.11l-.1.15-.22.22-.11.11-.18.12-.2.06s-.07.03 0-.02zm.43 0l.2-.15.26-.18s.13-.15.15-.15h.06l-.06.07-.15.17-.14.13-.1.08a.62.62 0 00-.12.08h-.2a.61.61 0 01.1-.05zm.29.07l.08-.08.11-.06.19-.15.13-.07a.9.9 0 00.1-.11s.12-.09.12-.07l-.34.31-.11.11H24.77zm.45 0l.12-.08.09-.06.07-.05v.13l-.15.1a.53.53 0 01-.14.05h-.11zm-3.58-2.56l.23-.18s-.21.2-.23.16zm.06 1v.05a1.09 1.09 0 01-.3.1 1 1 0 01-.4-.07s-.09-.11-.06-.1h.26a1.19 1.19 0 00.28 0 1.57 1.57 0 01.22.03zm-6.25-1.64l.12-.1.08-.08s.06-.07.08-.07a.21.21 0 000 .07h.11l.1-.09.08-.1.03-.02s0-.06 0 0l-.07.17a.69.69 0 010 .08s-.06.07-.08.07l-.09.05H15.45s-.06 0 0 0zm-.07-.06v.05l-.06.06h-.07a.81.81 0 01.09-.1l.09-.08.06-.06v.06a.73.73 0 00-.11.07zm.5-.82a.17.17 0 01.13 0 .32.32 0 01.05.21s-.05-.12 0-.13a.57.57 0 00-.1-.13l-.08.05zm-.71.72v.13h-.09l.06-.05.1-.08zm-.25 0h-.12.07zm10.6-7.5v4.67h-16V7.87zm-16 10.52l.36-.32a.1.1 0 01.08 0l-.16.19-.12.15a.9.9 0 01-.11.1h-.05zm1.33 8.7a2.81 2.81 0 01-1.33-1.91h1.33zm2.53 1.05a8.9 8.9 0 01-1.83-.63v-2.29h1.83zm2.52.5a5.21 5.21 0 00-1.07-.24l-.75-.12v-3.1h1.82zm1.65 1.2a2.39 2.39 0 00-.88-.85v-3.77h1.77V29a2.38 2.38 0 00-.89.8zm1.61-1.16v-3.46h1.83v3.1l-.75.12a5.28 5.28 0 00-1.08.24z" fill="#fff"/><path d="M13.44 19.09c-.1-.06-.07.07 0 .16a.44.44 0 00.27.12s.06 0 0-.08-.13-.08-.18-.11zM14.78 19.31a.91.91 0 00.16-.06.84.84 0 01.16-.07v-.16s0-.07-.08-.13a1.26 1.26 0 00-.17-.11.13.13 0 00-.13 0c-.08 0-.18.12-.23.16s0 .22.09.3a.32.32 0 00.2.07zm.07-.18a.14.14 0 000-.17L15 19s.08.08.07.09a.86.86 0 01-.24.11l.02-.07z" fill="#fff"/><path d="M14.84 18.66c.05 0 .15.1.17.12l.19.18a.59.59 0 010 .14h.07a.47.47 0 00.08-.19.21.21 0 000-.16l-.14-.18a.49.49 0 00-.34 0 .75.75 0 00-.27.13l-.07.06c-.08.05.26-.07.31-.1zM16.29 19c0-.05-.06-.1-.08-.13a.65.65 0 00-.22-.13h-.13c0 .06-.07 0-.14.2s0 .17 0 .23.24.14.26.14a.4.4 0 00.18-.12v-.06h-.15a.05.05 0 01-.06-.05h.16s.16-.03.18-.08zm-.41 0l.17-.15.08.05zM16.89 19.93l.09-.17a1 1 0 000-.33.72.72 0 00-.16-.26.62.62 0 00-.24-.13c-.07.06 0 .09 0 .11s.05.06.06.07l.11.08.06.06a.35.35 0 010 .11.34.34 0 01-.06.12l-.06.11a2.07 2.07 0 01-.21.21.52.52 0 01-.2.07 1.24 1.24 0 00-.2.06.25.25 0 00-.08.07.33.33 0 00.1 0h.3l-.1.06-.17.05-.18.08c-.06 0 0 0 0 0H16.43h-.08l-.09.05H15.95 16.24a.65.65 0 00.14 0h.26c.02 0 0 0 0 0H16.33l.15-.07a.35.35 0 00.14-.14.5.5 0 00.06-.17l.06-.1a.59.59 0 01.15.06zM17.86 20.32h-.05a.35.35 0 01-.11.08l.08-.07.08-.1a.41.41 0 000-.09h-.05l-.09.07-.14.07h-.1l.1-.06.07-.06.09-.09a1.25 1.25 0 01.09-.12v-.05h-.05a.47.47 0 00-.12.07l-.12.07-.13.06h-.09.06l.14-.09.08-.06.08-.07.07-.07v-.07c0-.07 0 0 0 0h-.17l-.13.09-.18.08h-.08c-.03 0 0 0 0 0l.15-.1.12-.09.1-.11a.18.18 0 00-.1 0h-.14l-.1.11A.87.87 0 0017 20v.25h.14l.23.16.1.05a.46.46 0 00.14.05H17.78l.08-.05s.05 0 .07-.05h.06l.06-.09a.24.24 0 010-.08l-.19.08zM15.53 19.36h.1c.01 0 0 0 0 0s0-.06-.07-.06 0 .05-.06.05-.12.05-.12.07v.05h.08zM14.21 18.77c0-.05-.09-.21-.15-.22l-.21-.06h-.31c-.06 0-.21.14-.19.17s.1 0 .17 0h.11l-.21.14s-.08.09 0 .1a1.18 1.18 0 00.29-.05c.07 0 .13-.09.15-.07s-.14.1-.17.13-.14.07-.13.1 0 .08.14.13.19.06.21.05h.07a.28.28 0 010-.08h.1s.14-.05.16-.1a.3.3 0 00-.03-.24zm-.27.18c-.19.08-.22 0-.22 0l.34-.15s.06 0 0 0a.65.65 0 01-.12.2zM18.63 19.81h-.06l-.11.06h-.05l.09-.09v-.06s0-.08.06-.09h-.05l-.06.06a.44.44 0 01-.1.06s-.05 0-.06.05h-.18.05c.05 0 .07-.07.07-.07l.09-.07.06-.05.06-.07c.01-.01 0-.06.05-.06s0-.06 0-.07l-.06.05h-.08l-.07.05a.91.91 0 01-.14.07h-.16l.1-.06.11-.08.11-.08.06-.06.06-.07c0-.01 0-.06.05-.07s0-.05 0-.06l-.08.07h-.08l-.1.07-.09.06h-.09l-.11.05H17.56h.06v-.05h-.08a.11.11 0 00-.09 0l.06.05.22.14.25.17a.75.75 0 01.15.09 1.89 1.89 0 00.21.09h.18l.09-.06a.27.27 0 00.08-.07l.06-.05v-.08a.19.19 0 000-.07l-.12.3zM20 18.88l-.12.09-.08.03h-.06a.14.14 0 00.1 0 .53.53 0 00.14-.06.3.3 0 00.02.06v-.08c0-.01 0 0 0 0v-.04zM15.18 19.39h-.07a.4.4 0 01-.17.09 1.18 1.18 0 01-.2.07 1.68 1.68 0 00.21-.18h-.06c-.06 0-.19.11-.24.12s-.11.06-.14.06-.19.06-.14 0a1.16 1.16 0 01.16-.11c.06-.11 0-.12 0-.12s-.06 0-.2.05-.08 0-.06 0 .11-.15.09-.16a.09.09 0 00-.08 0l-.09.05a.3.3 0 000 .38.59.59 0 00.31.21.88.88 0 00.32-.07l.27-.22c.02-.02.1-.15.09-.17z" fill="#fff"/><path d="M16.3 19.47l.12-.24a1.56 1.56 0 00.11-.28.33.33 0 00-.12-.28c-.13-.11-.2-.13-.22-.13a.38.38 0 00-.25 0 .37.37 0 00-.16.06l-.14.14a.36.36 0 00-.09.13.76.76 0 01-.1.15l-.07.16s0 .07 0 0l.14-.06a2.34 2.34 0 01.12-.3s.09-.15.13-.17.06-.07.11-.05a.71.71 0 01.22.07 1.5 1.5 0 01.24.2c0 .05.05.07 0 .09l-.1.18a1.24 1.24 0 01-.18.21s0 .06-.19.06a.84.84 0 00-.16-.07l-.29.07-.23.09s-.09 0-.1.07.19 0 .21 0h.23l.17-.05h.05c.05 0 0 0 0 0l-.23.1-.22.08-.14.06s-.1 0 0 .05h.23l.17-.05.14-.05h.2s.05 0 0 0l-.12.06-.14.07-.18.07h-.09s-.07 0-.07.05 0 .05.08.05a.81.81 0 00.2 0h.15v.05s-.08.08-.12.09a.57.57 0 01-.18 0h-.17l-.1-.05s-.08 0-.07-.07v.05a.61.61 0 000 .13l.15.11s.09.07.18.06.2 0 .22 0a.3.3 0 00.14-.09l.25-.26.14-.2a1.25 1.25 0 00.13-.36zM14.82 15.06a.31.31 0 00.22 0 1 1 0 00.25-.15s.09-.13.05-.14-.09 0-.13.06A1.66 1.66 0 0115 15l-.17.06h-.01zM15.86 18.36v.05c0 .05.09 0 .12-.05a1.36 1.36 0 01.2-.11s.09-.11.07-.14-.1 0-.11 0l-.19.14a.81.81 0 00-.09.11zM16.45 19.33c-.06.06 0 .07 0 .07h.06a.5.5 0 01-.08.07h-.09a.1.1 0 000 .07.26.26 0 000 .08l.05.06a.22.22 0 00.13 0l.09-.06a.23.23 0 00.07-.07s.05-.07-.1 0 .09-.07.09-.07h.11c.06 0 0-.09-.08-.15s-.1-.06-.11-.06-.08-.01-.14.06zM16.28 19.82s-.08 0-.07.06a.07.07 0 00.06 0h.08s.06 0 0-.06-.05-.02-.07 0z" fill="#fff"/><path d="M17.46 31.41A14 14 0 103.51 17.46a14 14 0 0013.95 13.95zM3.8 17.46a13.66 13.66 0 1113.66 13.66A13.68 13.68 0 013.8 17.46z" fill="#00437b"/><path d="M25.47 22.39H9.52v2.5h16zm-13.72 1l-.51.37.2.59-.5-.35-.5.37.2-.59-.51-.37h.62l.19-.58.18.58h.63zm2.19 0l-.5.37.2.59-.5-.35-.5.37.19-.59-.5-.37H13l.19-.58.18.58h.62zm1.89 1l-.5-.37-.49.37.2-.59-.51-.37h.63l.18-.58.18.58h.62l-.5.37zm2.51-1l-.5.37.19.59-.5-.37-.49.37.2-.59-.51-.37h.62l.19-.58.18.58h.62zm2.2 0l-.51.37.2.59-.5-.37-.49.37.2-.59-.51-.37h.62l.19-.58.18.58h.63zm2.2 0l-.51.37.2.59-.5-.35-.5.37.19-.59-.5-.37h.62l.19-.58.18.58h.63zm2.19 0l-.5.37.2.59-.5-.35-.5.37.19-.59-.5-.37h.62l.18-.58.18.58h.62z" fill="#00437b"/><path fill="#fff" d="M10.94 22.77l-.19.59h-.62l.5.37-.19.59v.01l.5-.37.49.37.01-.01-.2-.59.51-.37h-.63l-.18-.59zM13.14 22.77h-.01l-.18.59h-.62l.5.37-.19.59v.01l.5-.37.49.37v-.01l-.19-.59.5-.37h-.62l-.18-.59zM16.14 23.36h-.62l-.18-.59h-.01l-.19.59h-.62l.51.37-.2.59.01.01.49-.37.5.37v-.01l-.19-.59.5-.37zM17.54 22.77h-.01l-.19.59h-.62l.51.37-.2.59.01.01.49-.37.5.37v-.01l-.19-.59.5-.37h-.62l-.18-.59zM19.91 23.36l-.18-.59-.19.59h-.62l.51.37-.2.59v.01l.5-.37.5.37v-.01l-.2-.59.51-.37h-.63zM21.93 22.77l-.19.59h-.62l.5.37-.19.59v.01l.5-.37.49.37.01-.01-.2-.59.5-.37h-.62l-.18-.59zM24.13 22.77h-.01l-.18.59h-.62l.5.37-.19.59v.01l.5-.37.49.37.01-.01-.2-.59.5-.37h-.62l-.18-.59z"/><path d="M10.84 27.09v-1.91H9.51a2.81 2.81 0 001.33 1.91zM11.54 27.51a8.9 8.9 0 001.83.63v-3h-1.83zM14.07 28.28l.75.12a5.21 5.21 0 011.07.24v-3.46h-1.82zM25.46 25.18h-1.33v1.91a2.77 2.77 0 001.33-1.91zM23.43 25.18h-1.82v3a8.69 8.69 0 001.82-.63zM20.94 28.28v-3.1h-1.83v3.46a5.28 5.28 0 011.08-.24z" fill="#cd163f"/><path fill="#00437b" d="M17.92 9.46l-.38 1.02h.81l-.43-1.02zM23 10.15a.77.77 0 00-.86-.83h-.44V11h.42a.77.77 0 00.88-.85z"/><path d="M9.51 12.5h16V7.87h-16zM21 8.84h1.2a1.3 1.3 0 011.45 1.31c0 .76-.48 1.31-1.52 1.31H21zm-1.25 0h.65v2.62h-.65zm-2.25 0h.75l1.17 2.62h-.71l-.21-.52h-1.13l-.2.52h-.69zm-2.23 0a2.19 2.19 0 01.89.2v.52a2.1 2.1 0 00-.83-.24c-.24 0-.39.09-.39.22 0 .39 1.34.28 1.34 1.2 0 .5-.43.79-1 .79a1.83 1.83 0 01-1-.25v-.57a1.54 1.54 0 00.9.34c.25 0 .38-.09.38-.24 0-.43-1.33-.27-1.33-1.22.08-.49.47-.79 1.08-.79zm-3.41 0v1.5a.59.59 0 00.65.61.6.6 0 00.66-.65V8.84h.66v1.48c0 .87-.59 1.17-1.31 1.17s-1.32-.35-1.32-1.16V8.84z" fill="#00437b"/><path d="M11.24 10.33c0 .81.56 1.16 1.32 1.16s1.31-.3 1.31-1.17V8.84h-.66v1.46a.6.6 0 01-.66.65.59.59 0 01-.65-.61v-1.5h-.66zM15.64 10.77c0 .15-.13.24-.38.24a1.54 1.54 0 01-.9-.34v.57a1.83 1.83 0 001 .25c.58 0 1-.29 1-.79 0-.92-1.34-.81-1.34-1.2 0-.13.15-.22.39-.22a2.1 2.1 0 01.83.24V9a2.19 2.19 0 00-.89-.2c-.61 0-1 .3-1 .75-.04.95 1.29.79 1.29 1.22zM17.37 10.94h1.17l.21.52h.71l-1.17-2.62h-.75l-1.06 2.62h.69zm.55-1.48l.43 1h-.81zM19.79 8.84h.65v2.62h-.65zM23.65 10.15a1.3 1.3 0 00-1.45-1.31H21v2.62h1.09c1.08 0 1.56-.55 1.56-1.31zM21.7 11V9.32h.41a.77.77 0 01.86.83.77.77 0 01-.85.83z" fill="#fff"/><path d="M18.39 25.18h-1.77V29a2.39 2.39 0 01.88.85 2.38 2.38 0 01.89-.85z" fill="#cd163f"/><path fill="#00437b" d="M32.63 14.13l-.63-.21.39.53-.39.53.63-.21.39.53v-.65l.62-.2-.61-.2v-.65l-.4.53zM1.77 15.3l.4-.53.63.21-.38-.53.38-.53-.63.21-.39-.53v.66l-.62.19.61.2v.65zM4.34 11A.81.81 0 004 9.78L3 9.3l-.21.42 1 .47a.45.45 0 01.21.65.43.43 0 01-.6.22l-1-.48-.21.42 1 .48A.82.82 0 004.34 11zM5.18 9.46l-1-.7 1.61-.16.22-.33-1.55-1.09-.28.39.96.67-1.54.16-.25.36 1.56 1.09.27-.39zM4.85 6.74l.31-.36L6.6 7.64l-.3.35zM6.19 5.82l1.06 1.13.35-.32L6.54 5.5l.5-.48-.24-.25-1.35 1.27.24.25.5-.47zM9.43 5.19l-.21-.28-.75.55-.27-.37.7-.51-.21-.28-.7.51-.23-.32.73-.54-.2-.28-1.12.81 1.12 1.54 1.14-.83zM10.36 4.65c.67-.36.78-.88.52-1.36A1 1 0 009.5 3l-.74.4.91 1.6zm-.75-1.36a.56.56 0 01.84.23.56.56 0 01-.26.82l-.27.15-.58-1.06zM13 3c0 .11 0 .2-.21.25a1 1 0 01-.69 0l.12.39a1.18 1.18 0 00.71 0c.41-.13.63-.42.52-.77-.21-.63-1.1-.26-1.19-.53 0-.09 0-.18.21-.23a1.51 1.51 0 01.63 0l-.1-.46a1.51 1.51 0 00-.65.06c-.42.14-.63.43-.52.75.17.64 1.04.23 1.17.54zM14.09 1.61l.3 1.53.46-.1-.3-1.52.68-.13-.07-.35-1.82.36.07.35.68-.14zM15.23 3h.5l.11-.39.85-.07.18.37h.51L16.39 1h-.55zm1.29-.82l-.58.05.22-.76zM17.78 2.82l.48.02.05-1.56.69.03.02-.35-1.85-.07-.02.35.69.03-.06 1.55zM19.18 2.9l1.38.23.06-.35-.92-.15.07-.45.86.14.06-.34-.86-.14.06-.4.9.15.06-.34-1.37-.23-.3 1.88zM21.84 3c0 .11-.14.14-.32.09a1.14 1.14 0 01-.52-.45l-.15.36a1.36 1.36 0 00.61.37c.41.11.76 0 .86-.36.18-.64-.77-.82-.69-1.1 0-.09.15-.12.31-.08a1.66 1.66 0 01.53.33l.1-.35a1.5 1.5 0 00-.57-.29c-.43-.12-.76 0-.85.33-.15.65.77.81.69 1.15zM22.68 3.73l.46.22.29-.28.77.33v.4l.46.22V2.54l-.49-.23zm1.57-.86v.8l-.53-.25zM25.54 5.28a1.25 1.25 0 00.82.22l.42-.65-.63-.41-.15.29.23.15-.12.19a.63.63 0 01-.3-.12.57.57 0 01-.24-.83.61.61 0 01.87-.12 1.74 1.74 0 01.5.54l.22-.35a1.63 1.63 0 00-.54-.54 1 1 0 00-1.49.19 1 1 0 00.41 1.44zM26.5 5.92l1.06.92.23-.27-.7-.6.3-.35.65.57.23-.27-.66-.56.26-.31.69.6.23-.27-1.05-.9-1.24 1.44zM27.79 7.04l.31.35.92-.81-.22 1.6.26.3 1.43-1.26-.32-.36-.87.77.2-1.53-.29-.32-1.42 1.26zM31.15 8.85a1.31 1.31 0 01.2.65l.35-.23a1.42 1.42 0 00-.23-.67A1 1 0 0030 8.18a1 1 0 00-.21 1.46 1.51 1.51 0 00.57.52l.35-.23a1.34 1.34 0 01-.55-.46.58.58 0 111-.62zM30.61 11.02l.2.42.81-.38 1.23.25-.24-.52-.72-.12.37-.63-.25-.52-.59 1.11-.81.39zM.98 17.9l1.9-.08.02.47-1.9.07zM3.08 20.09l-1.15.17 1-1.17-.06-.44-1.89.28.07.47 1.21-.18-1.05 1.22.05.4 1.89-.28-.07-.47zM3.39 22.63l.33-.1-.53-1.78-.33.1.2.67-1.49.44.13.45 1.49-.44.2.66zM2.58 23.78L3 23.6l.35.79.32-.14-.35-.79.36-.16.37.83.32-.14-.56-1.26-1.74.76.56 1.28.32-.13-.37-.86zM4.79 25.81a.57.57 0 00.15-.81l-.43-.73-1.64 1 .24.41.67-.39.07.12c.13.22-.15.47-.39.85l.26.45c.35-.52.52-.69.5-.9a.5.5 0 00.57 0zm-.71-.74l.37-.22.12.21c.09.15.08.27 0 .34a.22.22 0 01-.32-.11zM6.34 26.95l-.91.72.28-1.52-.28-.34L3.95 27l.3.37.95-.76-.3 1.58.25.32 1.49-1.19-.3-.37zM7.28 27.94l-1.86.87.37.34.36-.15.63.58-.15.39.38.34.67-2zm-.38 1.28l-.43-.4.71-.35zM9.55 29.78l-1.49-1.1-.2.28.55.41-.92 1.25.38.29.92-1.26.56.41.2-.28zM8.8 31.52l.97-1.63.4.24-.96 1.63zM11.42 30.74a1 1 0 10-.81 1.78 1 1 0 001.4-.44 1 1 0 00-.59-1.34zm.14 1.13a.6.6 0 01-1.09-.49.6.6 0 011.09.49zM14.04 31.67l-.31 1.12-.67-1.39-.42-.11-.51 1.83.46.13.32-1.18.69 1.45.39.11.5-1.83-.45-.13zM15.38 31.92l-1 1.8.49.06.19-.36.85.1.11.4.5.06-.61-2zm-.14 1.19l.37-.7.21.77zM17.4 33.62l-.01-1.55h-.48l.02 1.9 1.45-.01v-.35l-.98.01zM20.12 31.83l-.83.16.35 1.87.77-.15c.75-.13 1-.59.92-1.13a1 1 0 00-1.21-.75zm.22 1.54l-.3.06-.22-1.19.3-.05a.6.6 0 11.22 1.18zM22.34 32.89l-.14-.44.82-.26-.1-.33-.83.26-.12-.38.86-.28-.1-.33-1.32.43.59 1.81 1.33-.43-.11-.34-.88.29zM24.17 30.48l.03 1.19-.91-.77-.47.21 1.65 1.36.19-.09-.02-2.11-.47.21zM25.98 31.24l-.25-.38.74-.47-.19-.29-.73.46-.21-.33.76-.49-.18-.3-1.17.74 1.01 1.61 1.19-.75-.19-.29-.78.49zM27.51 30.17l-.97-1.21-.37.3 1.19 1.48 1.13-.91-.22-.27-.76.61zM28.11 27.48a1 1 0 101.46-.12 1 1 0 00-1.46.12zm1.14 1.07a.58.58 0 11-.85-.79.55.55 0 01.83 0 .55.55 0 01.02.79zM30.45 26.44a.59.59 0 00-.11-.85.57.57 0 00-.82.2l-.49.69 1.55 1.09.28-.38-.63-.44zm-.38-.08l-.12.18-.36-.25.09-.13c.15-.21.25-.26.38-.16s.14.19.01.36zM30.76 23.61l.35.87-.91.22-.18.37 1.69.86.22-.42-1.06-.54.76-.19.04-.06-.3-.73 1.06.54.21-.43-1.69-.86-.19.37zM32.68 22.98l-.43-.15.28-.82-.33-.12-.28.82-.38-.12.29-.86-.33-.12-.45 1.31 1.8.62.46-1.33-.33-.11-.3.88zM31.88 19.9l1.14.23-1.34.77-.08.42 1.87.37.08-.46-1.19-.24 1.4-.8.08-.39-1.87-.37-.09.47zM32.44 17.4l-.35-.02-.1 1.85.35.02.04-.69 1.55.08.03-.47-1.55-.08.03-.69zM14.73 15.43h.12-.07zM14.93 15.48H15v-.13l-.1.08zM15.44 15.28l-.06.06-.09.08a.81.81 0 00-.09.1h.07l.06-.06v-.05a.73.73 0 01.08-.09zM15.55 15.53H15.76l.09-.05.08-.07a.69.69 0 000-.08l.07-.17-.05.07s-.08.08-.08.1-.09.07-.1.09h-.05-.06c-.06 0 0 0 0 0a.21.21 0 010-.07l-.08.07-.08.08-.12.1zM15 19h-.12a.14.14 0 010 .17s-.08.07-.07.08a.86.86 0 00.19-.15V19zM14.06 18.84l-.34.15h.22a.65.65 0 00.17-.09l-.05-.06z"/><path d="M24.72 18.86H21.44v-.06h.05l.12-.09.09-.07.05-.05a.76.76 0 01.09-.09.8.8 0 00.13-.13s.05 0 .05-.06h-.15l-.14.1-.1.09-.12.1-.15.09-.08.05h-.08v-.06l.05-.06a.12.12 0 010-.05l.14-.12.23-.19a1 1 0 00.14-.15l.13-.14-.11.08a.2.2 0 00-.06.07l-.16.13-.09.07-.15.12a.33.33 0 00-.1.06h-.09l-.2.14-.14.09h-.06l.12-.1.1-.09.14-.13a.93.93 0 00.14-.14l.09-.08a.29.29 0 00.07-.08s.06 0 .08-.07h-.06-.05l-.1.06-.16.11-.15.12-.14.08-.12.08h-.06.05l.13-.09.09-.1h.05a1 1 0 01.15-.13.07.07 0 000-.06l-.12.08-.16.11.18-.3a.48.48 0 01-.16.09v-.05l.21-.2.08-.08.05-.08-.05.05-.08.05-.12.08a.32.32 0 01-.08.06h-.12v-.05c0-.05 0 0 0 0l.11-.13a.33.33 0 01.06-.06v-.05l-.08.05s-.08 0-.08.05l-.09.06h-.06c-.06 0 0-.06 0-.07l.07-.1.08-.09s-.07 0-.09.05h-.08l-.11.05v.13l.06.16a2.69 2.69 0 00.13.32.43.43 0 010 .11V18.66a.51.51 0 01-.12.15H20.38a.08.08 0 010-.05l.05-.07.07-.06v-.06h-.05a.07.07 0 010-.06l.05-.08v-.05c0-.05 0 0 0 0l-.09.07c-.02.02 0 0 0 0l.09-.11c.01-.02 0 0 0 0h-.06a.1.1 0 01-.08 0 .1.1 0 01-.05-.08s0-.06-.07-.16 0-.11-.09-.24 0-.18 0-.19v-.07h-.06a.48.48 0 010-.12h.06l.08-.07v-.06l.09-.14-.07.07-.09.08a.23.23 0 01-.1.07h-.05a.46.46 0 010-.09L20 17v-.05l.1-.09.15-.12a.1.1 0 01.06-.05s0 .05.05.08a.47.47 0 010 .17v.16a.16.16 0 010 .07.26.26 0 000 .09v-.07-.06a.41.41 0 010-.08 2.21 2.21 0 01.11-.22 1 1 0 000-.28.73.73 0 000-.16 1.38 1.38 0 00-.06-.16.79.79 0 00-.1-.16s-.05-.07-.08-.08l-.11-.11-.09-.1a.82.82 0 00.1.17 1.15 1.15 0 01.13.24.08.08 0 010 .06.74.74 0 010 .14h.1c.02 0 0 0 0 .08a2.14 2.14 0 01-.13.22.33.33 0 01-.06.06 1.54 1.54 0 01-.13.12L20 17h-.05v-.05l.09-.1.07-.1.05-.06h-.05l-.15.09a.6.6 0 00-.13.09.76.76 0 01-.09-.09h.06l.11-.09.11-.11.1-.1a.17.17 0 000-.07v-.05.06h-.05l-.1.09-.12.09-.17.09h-.05l.06-.05.1-.1v-.05l.12-.12v.05l-.09.07h-.05s-.07 0-.08.05l-.1.06h-.07l.05-.05.09-.08a.25.25 0 00.08-.07h-.13l-.1.06-.13.07h-.09c-.04 0 0 0 0 0s.06 0 .06-.06l.08-.08.08-.08-.09.05-.16.08a.88.88 0 01-.14.07.07.07 0 01-.08 0v-.05h.06l-.1-.26.06-.06h-.12l-.18.07v-.05l.06-.06h-.31.06l.07-.07h-.1l-.18.06-.23-.09-.13-.12a.35.35 0 01-.09-.07l-.12-.09a.08.08 0 010-.05l.07-.07h-.28v-.06h.06l.1-.07-.16.07h-.19v-.05l.07-.08.11-.11a.58.58 0 01-.14.08l-.15.1a.45.45 0 01-.12.06.06.06 0 01-.06 0l.07-.11s.07-.06.07-.08a1.19 1.19 0 00-.24.13.5.5 0 01-.16.07v-.07l.1-.14-.1.07-.08.05-.12.08h-.1v-.06a.48.48 0 00.09-.13h-.05l-.13.07h-.1c-.02 0 0 0 0-.05s.08-.07.09-.08l.14-.12.02-.17h-.19a1.8 1.8 0 01-.05-.19.74.74 0 010 .15c0 .05-.1.17-.11.2l-.11.13a1 1 0 01-.2.12h-.08l-.14.05h-.47a.49.49 0 01-.17 0h-.15a.67.67 0 01-.2-.08.39.39 0 01-.17-.15.61.61 0 01-.08-.25h.25a.27.27 0 00.11.06.72.72 0 00.17 0 .77.77 0 00.15-.06h.06l.07-.05.07-.05a.56.56 0 000-.07.47.47 0 010-.09.16.16 0 01.05-.08l.09-.06h.58l.19.06.24.05H17.9l.22.06a.13.13 0 00.08 0l.14.07.21.08a1.43 1.43 0 01.2.05c.05 0 0 0 0 .08s0 .06-.06.07l.19-.08a.17.17 0 01.14 0 .08.08 0 010 .07l-.06.1h.05a.63.63 0 01.23-.08c.06 0 .07 0 .06.07l-.1.08h.26v.08c0 .02 0 0 0 0s.17-.06.21 0 0 .06 0 .06-.05 0 0 0h.28c.1 0 .24.19.26.21s.15.26.2.32l-.05-.21a.84.84 0 00-.14-.27c-.05-.06 0-.05 0 0s.06 0 .07.07l.11-.08h.05c.05 0 0 0 0 0s0 .06-.08.11l.18-.12s.11-.07.13-.06 0 0 0 .06a1.25 1.25 0 01-.2.2l.29-.15.16-.1c.18-.05.09.06.07.09l-.19.17s-.31.28-.26.26a5.57 5.57 0 00.55-.38 2.33 2.33 0 01.3-.18.17.17 0 01.11 0 3.23 3.23 0 01-.49.46l.38.2.55-.34.17-.08a.15.15 0 01.08 0v.07c0 .02-.2.19-.2.19l.5-.26a.35.35 0 01.18 0l-.16.19a1.88 1.88 0 01.43-.22c.09 0 0 .16 0 .16a2 2 0 00.33-.17.46.46 0 01.23 0l-.17.21a1.75 1.75 0 01.7-.28h1.01l-.11.16a3 3 0 01.3-.2c.13 0 .08.06.08.06l-.08.1h.06l.1-.08v-.21h-1.15c-.15 0-.91 0-1.08.05h-1.06c-.25 0-1 .05-1.11 0a8.54 8.54 0 00-.92-.07 1.63 1.63 0 01-.33-.06c-.47-.12-.62-.17-1-.28a5.23 5.23 0 01-.78-.31 4.28 4.28 0 00-.5-.08c-.19 0-.77 0-1-.07s-.44-.11-.59-.12h-.33c-.07 0-.25.16-.58.32a1.43 1.43 0 01-.56.17h-.16c-.12.09 0 .33 0 .34a4.21 4.21 0 01-1.63.13c-.29 0-.87-.08-1.36-.09a5.37 5.37 0 01-.66 0H9.51v.26h.1a.27.27 0 01.15 0c.09 0 0 .1 0 .1l-.09.1-.07.07.19-.1a1.88 1.88 0 01.24-.14h.13c.03 0-.06.1-.08.11l-.14.14.35-.19a1.09 1.09 0 01.23-.09c.06 0 0 0 0 0l-.07.06-.12.1s-.08.08-.06.09l.14-.07.22-.1.12-.06a.2.2 0 01.13 0l-.17.16-.07.07.43-.2.11-.05h.08s0 .07-.08.09l-.17.15.22-.1.24-.11a.25.25 0 01.14 0s-.1.13-.13.14l-.11.1h.11l.39-.16H13.02v.06c0 .01 0 0 .07 0l.12-.06h.17v.08c0 .01 0 0 .07 0l.16-.07h.11c.07 0 0 0 0 0v.06l.15-.06a.19.19 0 01.15 0 .18.18 0 010 .08v.05l.08-.05.15-.08a.41.41 0 01.17-.07s0 .05-.11.11l.24-.08h.07c.01 0 0 .06-.05.07l-.09.1.13-.08a.75.75 0 01.13-.06.07.07 0 01.08 0v.06l-.14.13s-.07 0 0 0a.42.42 0 00.15-.06l.24-.1h.09c.03 0-.1.13-.11.14l-.13.1s.09-.06.14-.06.47-.25.47-.25c.16-.05 0 .08 0 .11l-.07.06.47-.25c.04-.01.08 0 .07 0v.06a1.54 1.54 0 011-.15 1.26 1.26 0 01.46.1 2.56 2.56 0 01.36.17l.17.15.28.17a4.39 4.39 0 00.44.21s.32.19.41.22a2.43 2.43 0 01.35.2l.35.3s.11.11.1.15a.93.93 0 00.07.2 5.92 5.92 0 01.21.58l.1.28a.74.74 0 010 .12.56.56 0 010 .13.61.61 0 01-.13.15l-.11.08a.42.42 0 01-.15.06.2.2 0 01-.11 0h-.06l.14-.06.09-.05.17-.15a.23.23 0 000-.09H20.02l-.14.09h-.33c-.05 0 0 0 0 0h.16l.1-.07.09-.1h-.22a.32.32 0 01-.15.06h-.07c-.02 0 0 0 0-.05s.08 0 .09 0l.14-.08a.46.46 0 00.07-.07.42.42 0 00-.12 0h-.25c-.02 0 0-.06 0-.07l.13-.06.11-.07a1.13 1.13 0 00.11-.11h-.07l-.07.05H19.22a.54.54 0 01.12-.07l.11-.06.11-.08.08-.13a.3.3 0 000-.1s0 .07-.05.08a.22.22 0 01-.08.05.08.08 0 01-.07 0v-.06a.6.6 0 01.06-.11s0-.07.07-.09 0-.09 0-.1v-.06.07a.67.67 0 01-.07.11s0 .06-.06.07l-.09.08-.13.09-.13.07h.18l-.07.07c-.02.02-.12 0-.13 0h-.06l-.01.28a1.92 1.92 0 01-.15-.14l-.37-.21c0-.01 0 0 0 0h.08s.09-.09.11-.09l.12-.12h-.1l-.1.05-.18.06-.06-.06.08-.06.13-.1-.15.07a.71.71 0 01-.2 0l.07-.06a.38.38 0 01.11-.08H18.1h-.06c-.06 0 0 0 0 0l.13-.11a.35.35 0 00.09-.07h-.15L18 17h-.11l.09-.1c.03-.04.08 0 .08-.06s-.05 0-.06 0h-.27v-.06l.22-.16a.11.11 0 00.06-.06l-.11.06-.16.06h-.07a.16.16 0 01-.1 0v-.06a.45.45 0 01.13-.1 1.74 1.74 0 00.14-.12l-.09.05-.13.06a.44.44 0 00-.13.06c-.15 0-.06.06-.06.06a.89.89 0 01.21.37c.32.31.54.44.58.49s.52.38.54.38a1.84 1.84 0 01.24.2.9.9 0 01.26.58 1.24 1.24 0 01-.11.23l-.2.15-.1.08.19-.06a1.09 1.09 0 00.11-.1l.16-.13h.06c.06 0 0 .05 0 .07V19.04a1 1 0 01-.11.1s-.12.11-.15.11a.13.13 0 00-.06 0h.11a.74.74 0 00.13-.08l.15-.12s.07-.08.09-.08 0 .1 0 .12l-.16.14a.89.89 0 01-.16.09s-.06 0-.06.05.14 0 .15 0h.12s.08-.07.12-.07 0 .05 0 .06-.07.07-.08.1l-.14.08s-.1 0-.1.05.05 0 .12 0h.08v.05l-.13.09a.16.16 0 01-.15 0 .36.36 0 01-.09-.09c-.06 0-.12-.21-.15-.23s-.1-.18-.13-.21l-.17-.2h-.24a2.85 2.85 0 00-.36-.3l-.27-.21-.3-.23a.74.74 0 00-.16-.11l.09-.07a.32.32 0 00.06-.07l.12-.11s-.08.05-.11.05a.36.36 0 00-.13.09h-.16c-.02 0 0 0 0 0v-.05l.13-.1.16-.17v-.05l-.11.06-.18.11-.17.11-.09.1L17 18l.11.09H17l.09.06h.09a.18.18 0 00.08 0 .76.76 0 01.2.12l.42.27a.46.46 0 01.16.14v.08a.28.28 0 000 .1.09.09 0 01.05 0h.05a.17.17 0 010 .07v.06l-.1.08s-.06.05-.08.05 0 0 0-.06a.13.13 0 000-.09.07.07 0 000-.06s0 .05-.06.07l-.08.06-.14.08a.31.31 0 01-.1 0h-.07v-.05l.1-.06a.13.13 0 00.05-.06h-.06a.67.67 0 01-.14.07 3 3 0 01-.29.09h-.11.06l.13-.06.16-.1s.06 0 .06-.06 0 0-.05 0l-.17.07h-.22s-.06 0 0-.07a.26.26 0 01.1-.07.3.3 0 00.13-.09l.08-.05s.06 0 0 0h-.06a.19.19 0 01-.1 0l-.11.05h-.11.04l.05-.05.07-.06.09-.06.1-.07h-.25L17 19h-.08.05l.21-.16h-.09a.22.22 0 00-.1 0h-.22s.11-.08.11-.1l.11-.06h-.18l-.13.06a.06.06 0 01-.06 0v-.05c0-.05 0 0 .08-.06l.1-.09.09-.07c0-.01 0 0 0 0h-.21l-.09.05h-.09c-.04 0 0 0 0-.05s.07-.07.08-.08l.06-.06.13-.11h-.05l-.15.08-.08.06h-.19v-.06c0-.06.13-.1.16-.12l.12-.09h.09-.1-.1a.94.94 0 01-.15-.08l-.1-.06h-.15a.23.23 0 00-.1 0l-.13.11-.27.21-.1.06s-.1.06-.12.05.08-.07.11-.08a2.09 2.09 0 00.28-.24l.09-.07a.77.77 0 01.13-.12H15.98l-.1.06-.11.07-.1.05-.16.11-.15.09-.18.15-.1.05H15v-.09l.1-.07.06-.06.09-.08.23-.2v-.05c0-.05.2-.19.22-.21h-.05a1.73 1.73 0 00-.2.14l-.35.17a1.18 1.18 0 01-.18.13l-.38.32-.13.14H14.29a.71.71 0 01.12-.15l.16-.14.12-.12.15-.15.13-.11.17-.14c.04-.02 0 0 0 0h-.06l-.14.08-.19.14a1.57 1.57 0 01-.19.15 3.22 3.22 0 01-.29.25c-.18.14-.18.11-.2.11s0-.06 0-.06l.16-.14.09-.1.22-.22.21-.17a1.14 1.14 0 00.11-.11l.14-.14-.29.21-.25.2-.22.18a.64.64 0 00-.13.1l-.14.11-.15.11h-.06c-.06 0 .08-.1.11-.11a1.45 1.45 0 00.17-.18 1.79 1.79 0 01.23-.25 1.14 1.14 0 01.11-.11l-.07.05h-.08l-.08.07-.14.1A.28.28 0 0114 18l-.26.2-.12.11s-.06.07-.09.08a.36.36 0 010-.09s.06 0 .08-.06a.13.13 0 000-.05l.12-.12.16-.14.1-.13s-.09.07-.11.07l-.15.11-.12.09-.25.18-.16.14s-.09.1-.11.1 0-.07 0-.08l.12-.16a.23.23 0 000-.07l.09-.09.17-.19v-.05c0-.05-.06 0-.08.05l-.1.08-.32.27-.32.29a.55.55 0 01-.16.11h-.06c-.06 0 0 0 0 0l.08-.1a.81.81 0 01.16-.17.58.58 0 00.11-.1L13 18l.25-.25.14-.13.15-.15-.2.15a2.65 2.65 0 00-.22.17l-.19.14-.46.42-.11.1-.12.11h-.14a1.09 1.09 0 01.1-.11l.23-.25.27-.25.38-.35h-.05l-.16.11-.34.25a1.74 1.74 0 00-.24.22l-.21.18-.07.06-.17.15a.6.6 0 01-.08.08h-.08v-.05a.35.35 0 01.08-.11l.12-.13.06-.06s.07-.05.07-.07.12-.11.12-.12l.16-.16c.03-.02-.05 0-.07 0a1.28 1.28 0 01-.23.14 2.66 2.66 0 00-.31.26l-.21.23-.2.1H9.48a1.61 1.61 0 000 .22h.16l.36.1h1.04l.94-.06h1.13a1.27 1.27 0 010 .14l.1.15a.52.52 0 00.09.17l.15.11h.23a.2.2 0 00.07 0h.06a.15.15 0 00.1 0 .41.41 0 00.09.18l.23.18a.6.6 0 00.13.08h.22a1.09 1.09 0 01.17 0v.09l.3.26a1.13 1.13 0 00.41 0c.08 0 .13-.05.13 0a.84.84 0 00.3.32.76.76 0 00.28.1h.21l.25-.08.17-.07.22.13a.41.41 0 00.21.08h.14l.23-.07a1 1 0 00.16-.13.56.56 0 00.1-.3v-.09l.09.06c.03.01.16.06.21 0h.15a1.42 1.42 0 00.25-.24.25.25 0 010-.09.5.5 0 00.41 0c.27-.18.29-.35.29-.35s.06-.07.14-.11a1 1 0 00.19-.1l.2-.19a.74.74 0 01.09-.12l.21-.07a2 2 0 01.27-.17h.69l1 .06h.73l2.36.19v-.2c0-.02-.38 0-.42 0zM14.79 15H15a1.66 1.66 0 00.25-.14s.09-.06.13-.06 0 .11-.05.14a1 1 0 01-.25.15.31.31 0 01-.22 0h-.05s-.05-.09-.02-.09zm1.77 4.26s.05 0 .11.06.09.13.08.15 0 0-.06 0h-.05s-.24.09-.09.07.1 0 .1 0a.23.23 0 01-.07.07l-.09.06a.22.22 0 01-.13 0l-.05-.06a.26.26 0 010-.08.1.1 0 010-.07h.09a.5.5 0 00.08-.07h-.06s-.07 0 0-.07.12-.04.14-.04zm-.21.62h-.08a.07.07 0 01-.06 0l.07-.06c.07-.06.07 0 .08 0s.01.06-.01.08zm-.17-1.79h.11c.03 0-.05.13-.07.14a1.36 1.36 0 00-.2.11s-.08.07-.12.05 0-.05 0-.05a.81.81 0 01.13-.11zm-.46.11a.82.82 0 01.34-.21c.15 0-.07.14-.1.16l-.19.15-.25.16h-.06zm-.1.34v.08a.1.1 0 01-.07 0s-.08 0 0-.06.06-.01.07 0zm-1 .13a.75.75 0 01.27-.13.49.49 0 01.34 0l.14.18a.21.21 0 010 .16.47.47 0 01-.08.19h-.07a.59.59 0 000-.14s-.22-.13-.22-.15-.12-.14-.17-.12-.39.15-.32.09zm-.1.25s.15-.17.23-.16a.13.13 0 01.13 0 1.26 1.26 0 01.17.11c0 .06.08.1.08.13v.16a.84.84 0 00-.16.07.91.91 0 01-.16.06.32.32 0 01-.2-.07c-.11-.06-.18-.22-.12-.28zm-.76.43a.44.44 0 01-.27-.12c-.09-.09-.12-.22 0-.16l.16.09c.05 0 .17 0 .18.11s-.05.1-.1.1zM14 19h-.1a.28.28 0 000 .08h-.07c-.07 0-.08 0-.21-.05s-.14-.1-.14-.13.09-.07.13-.1.19-.11.17-.13-.08 0-.15.07a1.18 1.18 0 01-.29.05v-.1l.21-.14h-.11c-.06 0-.14.06-.17 0s.14-.16.19-.17.23 0 .31 0 .14.06.21.06.15.17.15.22a.3.3 0 01-.05.16c.06.18-.08.18-.08.18zm.83.72a.88.88 0 01-.32.07.59.59 0 01-.31-.21.3.3 0 010-.38l.09-.05a.09.09 0 01.08 0s.07 0-.09.16-.13.09.06 0 .11-.05.2-.05.09 0 0 .12a1.16 1.16 0 00-.16.11h.14c.02 0 .09-.05.14-.06s.18-.12.24-.12h.06a1.68 1.68 0 01-.21.18s-.07 0 0 0a1.18 1.18 0 00.2-.07.4.4 0 00.17-.09s.06-.05.07 0-.07.12-.08.14l-.28.28zm.92.35a.3.3 0 01-.14.09h-.22c-.09 0-.15-.06-.18-.06l-.15-.1a.61.61 0 010-.13v-.05s.05.07.07.07l.1.05h.17a.57.57 0 00.18 0l.12-.09v-.05h-.15a.81.81 0 01-.2 0c-.09 0-.08 0-.08-.05s0 0 .07-.05h.09l.18-.07.14-.07.12-.06h-.2l-.14.05-.17.05h-.23c-.07 0 0-.05 0-.05l.14-.06.22-.08.23-.1h-.05l-.17.05h-.23s-.22.06-.21 0 .09-.06.1-.07l.23-.09.29-.07a.84.84 0 01.16.07c.16 0 .17-.05.19-.06a1.24 1.24 0 00.18-.21l.1-.18v-.09a1.5 1.5 0 00-.24-.2.71.71 0 00-.22-.07c-.05 0-.07 0-.11.05l-.13.17a2.34 2.34 0 00-.12.3l-.14.06c-.06 0 0 0 0 0l.07-.16a.76.76 0 00.1-.15.36.36 0 01.09-.13l.14-.14a.37.37 0 01.16-.06.38.38 0 01.25 0s.09 0 .22.13a.33.33 0 01.12.28 1.56 1.56 0 01-.11.28l-.12.24a1.25 1.25 0 01-.16.17l-.14.2zm-.37-.76s.1-.07.12-.07.06-.05.06-.05.06 0 .07.06-.08 0-.1 0h-.16s0 .1.01.09zm.67-.16h.15v.06a.4.4 0 01-.18.12s-.25-.09-.26-.14-.1-.07 0-.23l.14-.2s0-.07.13 0a.65.65 0 01.22.13s.1.08.08.13-.11.09-.14.1h-.16a.05.05 0 00.02.06zm.74.93a.5.5 0 01-.06.17.35.35 0 01-.14.14c-.12.08-.15.07-.15.07h-.09.4c.01 0 0 0 0 0h-.26a.65.65 0 01-.14 0h-.29.31l.09-.05H16.47 16.06s-.07 0 0 0l.18-.08.17-.05.1-.06h.05-.35a.33.33 0 01-.1 0s-.06 0 0 0a.25.25 0 01.08-.07 1.24 1.24 0 01.2-.06.52.52 0 00.2-.07 2.07 2.07 0 00.21-.21l.06-.11a.34.34 0 00.06-.12.35.35 0 000-.11l-.06-.06-.11-.08s-.06 0-.06-.07v-.11a.62.62 0 01.24.13.72.72 0 01.16.26 1 1 0 010 .33c0 .06-.08.16-.09.17a.59.59 0 000 .08s-.2-.03-.21-.01zm1.1.31l-.06.09h-.06s-.05.05-.07.05l-.08.05H17.45a.46.46 0 01-.14-.05l-.1-.05-.21-.06h-.14v-.06-.06-.06-.07a.87.87 0 01.09-.12s.06-.11.1-.11h.14a.18.18 0 01.1 0l-.1.11-.12.09-.15.1s-.08 0 0 0H17l.18-.08.13-.09h.17c.05 0 0 0 0 0v.07l-.07.07-.08.07-.08.06-.14.09h-.06.09l.13-.06.12-.07a.47.47 0 01.12-.07h.05v.05a1.25 1.25 0 00-.09.12l-.09.09-.07.06-.1.06s-.05 0 0 0h.1l.14-.07.09-.07h.05a.41.41 0 010 .09s-.08.08-.08.1l-.08.07a.35.35 0 00.11-.08h.05a.24.24 0 00.3-.23zm.79-.55v.08s-.06 0-.06.05a.27.27 0 01-.08.07l-.09.06h-.18a1.89 1.89 0 01-.21-.09.75.75 0 00-.15-.09l-.25-.17-.22-.14s-.07 0-.06-.05a.11.11 0 01.09 0h.08v.05h-.05s-.05 0 0 0h.36l.11-.05h.09l.09-.06.1-.07h.08s.07-.08.08-.07v.06c0 .06 0 .07-.05.07s-.06.06-.06.07l-.06.06-.11.08H18l-.1.06h.16a.91.91 0 00.14-.07l.07-.05h.08l.06-.05v.07l-.05.06c-.05.06 0 .06-.06.07l-.06.05-.09.07-.07.07h-.05.18s0-.05.06-.05a.44.44 0 00.1-.06l.06-.06h.05c.05 0 0 0 0 0l-.06.09v.06l-.09.09h.05l.11-.06h.06a.19.19 0 01.13-.12zm1.36-1L20 19a.3.3 0 01-.08.09.53.53 0 01-.14.06.14.14 0 01-.1 0h.06l.09-.05.12-.09s.1-.13.05-.13z" fill="#00437b"/><path fill="#00437b" d="M15.88 19.01l.25-.1-.08-.05-.17.15zM9.67 18.41l.12-.15.16-.19a.1.1 0 00-.08 0s-.33.31-.36.32v.14h.05a.9.9 0 00.11-.12zM10 18.44c0-.06.18-.17.18-.19a3.69 3.69 0 01.34-.35h-.07a.21.21 0 00-.07.07l-.52.44-.08.14a.3.3 0 00.22-.11zM11 17.86l.08-.1s-.1.08-.12.08-.34.28-.37.29a2.26 2.26 0 00-.21.16l-.24.24h.13c.05 0 .11-.08.15-.1l.27-.24zM10.89 18.31l.2-.17.29-.24.25-.25-.13.1-.23.15a1.72 1.72 0 01-.23.17s-.3.22-.33.22-.25.27-.25.27l.25-.09zM10.88 18.62a2.65 2.65 0 01.27 0 .25.25 0 00.16 0l.07-.06a3.23 3.23 0 01.27-.23l.27-.23.26-.25s.1-.08.08-.09h-.08c-.08 0-.21.18-.26.2s-.26.22-.26.22l-.25.2a.6.6 0 01-.12.11H11.12v-.06l.21-.2.39-.32a3.59 3.59 0 00.32-.35l-.15.12-.29.21-.17.14a3.2 3.2 0 00-.27.22l-.27.2a1.19 1.19 0 01-.16.1c-.05 0-.06 0-.05.06s.13.01.2.01zM12.47 17.74l-.11.09h.13v-.08l.29-.2a1.28 1.28 0 01-.17.1l-.14.09zM13.58 16.9v-.08h-.05l-.14.09a2.09 2.09 0 00-.22.16c-.11.09-.06.13-.05.12l.21-.13.19-.12a.15.15 0 00.06-.04zM13.62 17.1a1.79 1.79 0 01.24-.12s0-.05.06-.07 0 0-.05 0-.11.08-.15.08a2.33 2.33 0 00-.27.21l.17-.1zM13.65 17.29a1.12 1.12 0 00.16-.1.66.66 0 00.13-.08h-.14l-.12.12v.06h-.03zM13.76 17.63a1 1 0 00.16-.12s.16-.11.18-.1a.12.12 0 000-.09h-.08c-.08 0-.09.05-.12.07a1.1 1.1 0 00-.11.12l-.11.11s.03.02.08.01zM14.73 17.39l.25-.2-.18.13-.2.14a.57.57 0 00-.17.13l.27-.1zM15.54 17.39l-.13.08s-.1.09-.08.1.2-.13.2-.13a.22.22 0 00.01-.05zM16.25 17.05c.1 0 .06 0 0 0s-.05.06 0 .08.08 0 .11-.05a.16.16 0 01.15 0l-.1.18a.19.19 0 000 .08.81.81 0 00.14-.12s.09-.06.13 0-.12.19-.13.19l-.21.27a1.2 1.2 0 00.21-.13s.24-.18.3-.15-.06.13-.06.13l-.39.34h.08c.03 0 .18-.12.22-.14s.12-.11.15-.11a.12.12 0 01.09 0v-.05a1.78 1.78 0 000-.2c0-.07 0 0 .07-.05a.58.58 0 00.08-.1l-.1.05h-.13c-.06 0 0-.06 0-.06l.14-.19a.5.5 0 01-.2.09c-.12 0-.12 0-.14-.07s.1-.15.1-.15l-.11.08-.17.05v-.14c0-.04 0 0 0 0l-.2.1a1.07 1.07 0 00-.28.12l.25-.05zM17 17.66l-.11.12c-.08 0-.22.2-.19.2a.79.79 0 00.16-.08.94.94 0 00.2-.16l.19-.16c0-.01.1-.12.09-.16s-.07.06-.07.06zM17.49 18.08h-.06s0 .05.06.05.24-.19.24-.19l.12-.17a3.18 3.18 0 01-.27.17.73.73 0 01-.09.14zM17.63 18.19c-.07 0-.06.09-.05.1a.45.45 0 00.16 0c.06 0 .17-.15.17-.15L18 18l-.24.12zM17.49 16.47l.12-.11-.22.09-.12.05v.05c0 .05.05 0 .09 0s.13-.08.13-.08zM17.27 15.94a2.26 2.26 0 00-.22-.11 1.74 1.74 0 00-.29-.07h-.19a1.6 1.6 0 01.31.1s-.1.22-.08.22.2-.15.26-.11-.12.19-.12.19.17-.13.24-.13a1.4 1.4 0 01-.16.22h.11s.17-.17.19-.07 0 .09.05.09a.67.67 0 00.14-.09 1 1 0 00-.13-.11zM18.79 17.44c-.07 0 0 .07 0 .06s.06 0 .08 0a.73.73 0 00.13-.1l.12-.13-.18.11zM18.9 17.66a.21.21 0 00.1-.06l.24-.2-.31.13c-.14.06-.06.13-.03.13zM19 17.79h.15c.06 0 .22-.2.22-.2l.11-.15-.21.14-.18.1a.11.11 0 00-.09.11zM17.74 18.37l.07.05.1-.05.11-.1a1.37 1.37 0 00.2-.22l-.26.16zM18 18.46l.08.05.08-.05a.86.86 0 00.17-.18l.12-.14-.28.15zM18.19 18.55s-.07 0-.06.06.06 0 .12 0a.41.41 0 00.11-.06l.1-.11.06-.1-.19.1zM18.8 18.52l.09-.14-.12.12-.26.16-.14.08-.07.07h.05a.21.21 0 01.11-.05h.13c.04 0 0 .07 0 .09s-.13.07-.13.07h.28c.03 0 0 0 0 .06a1.06 1.06 0 01-.14.15.7.7 0 00.2-.08l.16-.13.11-.1v-.07c0 .01-.11.09-.15.09a.15.15 0 01-.1 0 .77.77 0 01.13-.12.93.93 0 00.07-.15.75.75 0 01-.19.19c-.12.07-.12 0-.14 0s0-.06 0-.07l.11-.17zM16 14.89a.32.32 0 00-.05-.21.17.17 0 00-.13 0 .57.57 0 01.1.13l.08.08zM21.82 16s-.24.16-.23.18.21-.09.21-.09zM23.92 15.62l-.11.1.11-.05s.16-.07.11-.07a.18.18 0 00-.11.02zM24.44 15.63h-.13l-.05.06s.16-.04.18-.06zM21.12 17.17h-.26s0 .08.06.1a1 1 0 00.4.07 1.09 1.09 0 00.3-.1v-.05a1.57 1.57 0 00-.25 0 1.19 1.19 0 01-.25-.02zM22.33 17.88l.14-.15a.56.56 0 00.05-.08s-.1.1-.12.1-.11.1-.15.12l-.17.12h.13zM21.82 18.56a2.1 2.1 0 00.51.05l.08-.1a1.58 1.58 0 01.18-.15 2.18 2.18 0 00.21-.22l.2-.23-.1.09-.29.25-.23.17-.17.05h-.15l.21-.17.22-.21.29-.29v-.06a.62.62 0 01-.12.08 2.4 2.4 0 00-.23.21l-.3.23-.24.2s-.08.07-.07.1zM23.2 18.46a2 2 0 01.18-.13l.18-.17.29-.34-.06.05a2.06 2.06 0 00-.16.15l-.22.18-.25.2-.13.06h-.19c-.01 0 0 0 0 0a1.83 1.83 0 01.16-.13 1.3 1.3 0 00.18-.15s.06-.07.09-.08a1.93 1.93 0 00.27-.31.11.11 0 000-.06l-.09.07-.25.23-.22.2-.3.23-.24.17h.54l.22-.17zM23.61 18.44l.17-.12c.03-.01.07-.11.1-.15s0-.05 0-.05l-.2.14-.27.22-.09.11.13-.07a1.09 1.09 0 01.16-.08zM24 18.16l.08-.09.19-.21A1.81 1.81 0 0124 18s0 .07-.05.08a.94.94 0 010 .09zM23.71 18.63h.11l.07-.05.15-.12.19-.18.11-.12.11-.14v-.06c0-.06-.06 0-.08 0l-.14.14-.11.12-.12.09-.2.12-.13.1-.12.07h.05zM24.2 18.61l.18-.12.11-.11.22-.22.1-.15a1.13 1.13 0 01-.11.11l-.18.13-.13.13-.22.16a1 1 0 00-.17.11c-.07.05 0 .05 0 .05zM24.53 18.67a.62.62 0 01.12-.08l.1-.08.14-.13.15-.17.06-.07h-.06c-.06 0-.15.15-.15.15l-.26.18-.2.15a.61.61 0 00-.1.07h.1zM24.8 18.73h.12l.11-.11.34-.31-.12.07a.9.9 0 01-.1.11l-.13.07-.19.15-.11.06-.08.08zM25.18 18.76a.53.53 0 00.14-.05l.15-.1v-.13l-.07.05-.09.06-.12.08-.1.09z"/><path d="M38.9 6.13v9.5c0 5.16 3.5 7.42 8.35 7.42 4.58 0 8.35-1.91 8.35-7.45V6.13h-4.16v9.3c0 3-2 4.14-4.24 4.14-2.4 0-4.14-1.44-4.14-3.84v-9.6zM70.17 10.46zM64.52 5.91c-3.87 0-6.37 1.91-6.37 4.8 0 6 8.5 5 8.5 7.73 0 1-.86 1.55-2.45 1.55-1.84 0-3.31-.57-5.71-2.16v3.6a11.32 11.32 0 006 1.62c3.72 0 6.41-1.86 6.41-5.07 0-5.83-8.5-5.12-8.5-7.64 0-.83 1-1.37 2.45-1.37a12.92 12.92 0 015.29 1.49V7.2a13.83 13.83 0 00-5.62-1.29zM78.45 6.13l-6.73 16.7h4.4l1.25-3.31h7.47l1.37 3.31h4.48l-7.42-16.7zm0 10.48l2.45-6.49 2.7 6.49zM92.53 6.13h4.17v16.7h-4.17zM107.64 6.13h-7.37v16.7h6.9c6.66 0 9.7-3.53 9.7-8.33 0-4.58-3.13-8.37-9.23-8.37zm-.49 13.64h-2.72V9.19h2.67c3.94 0 5.48 2.42 5.48 5.29 0 2.45-1.24 5.29-5.43 5.29zM41.04 26.96v-.51h-2.12v3.95h.57v-1.84h1.55v-.51h-1.55v-1.09h1.55zM44 27.55c0-.68-.5-1.1-1.3-1.1h-1v3.95h.56v-1.71h.24c.29 0 .53.09 1 .9l.52.81h.68c-.27-.37-.37-.51-.54-.78a3.25 3.25 0 00-.88-1.1 1 1 0 00.72-.97zm-1.36.62h-.37v-1.24h.37c.55 0 .77.23.78.6s-.22.64-.83.64zM53.23 30.4v-3.95h-.52l-1.32 1.62-1.31-1.62h-.54v3.95h.57v-3.08h.01l1.22 1.53h.1l1.21-1.53h.02v3.08h.56zM55.36 26.96h1.37v3.44h.57v-3.44h1.37v-.51h-3.31v.51zM62.56 30.4v-3.95h-.57v1.72h-2.22v-1.72h-.56v3.95h.56v-1.72h2.22v1.72h.57zM65.68 26.96v-.51h-2.24v3.95h2.3v-.51H64v-1.23h1.63v-.51H64v-1.19h1.68zM67.52 30.4h.58l.5-1.16h1.68l.53 1.16h.58l-1.77-4h-.4zm2.53-1.67h-1.23l.59-1.44zM75.5 30.4v-3.95h-.52l-1.32 1.62-1.31-1.62h-.54v3.95h.57v-3.08h.01l1.22 1.53h.1l1.22-1.53h.01v3.08h.56zM78.61 26.96v-.51h-2.25v3.95h2.3v-.51h-1.73v-1.23h1.62v-.51h-1.62v-1.19h1.68zM81.57 27.55c0-.68-.49-1.1-1.3-1.1h-1v3.95h.57v-1.71h.24c.29 0 .53.09 1 .9l.53.81h.67c-.27-.37-.37-.51-.54-.78a3.25 3.25 0 00-.88-1.1 1 1 0 00.71-.97zm-1.36.62h-.37v-1.24h.37c.55 0 .77.23.77.6s-.16.64-.77.64zM82.77 26.45h.57v3.96h-.57zM86 26.91a2.53 2.53 0 011.36.42v-.61a3.4 3.4 0 00-1.36-.33 2.08 2.08 0 00-2.17 2v.12a2 2 0 002 2H86a2.86 2.86 0 001.43-.35v-.62A2.54 2.54 0 0186 30a1.49 1.49 0 01-1.6-1.35v-.15a1.51 1.51 0 011.48-1.54zM87.7 30.4h.58l.5-1.16h1.69L91 30.4h.58l-1.77-4h-.4zm2.53-1.67H89l.59-1.44zM92 26.45v3.95h.54v-3.04l2.64 3.04h.49v-3.95h-.53v3.06l-2.69-3.06H92zM99.29 28.69c.92 0 1.33-.49 1.33-1.11a1.11 1.11 0 00-1.08-1.14h-1.41v3.96h.57v-1.71zM98.7 27h.66c.52 0 .68.31.68.6a.68.68 0 01-.7.62h-.64zM103.36 26.96v-.51h-2.25v3.95h2.3v-.51h-1.73v-1.23h1.62v-.51h-1.62v-1.19h1.68zM109.93 28.69c.91 0 1.33-.49 1.33-1.11a1.11 1.11 0 00-1.08-1.14h-1.41v3.96h.57v-1.71zm-.59-1.69h.66c.52 0 .68.31.68.6a.68.68 0 01-.7.62h-.64zM111.75 26.45v3.95h2.36v-.51h-1.79v-3.44h-.57zM115.17 28.66h1.62v-.51h-1.62v-1.19h1.67v-.51h-2.24v3.95h2.3v-.51h-1.73v-1.23zM46.76 26.45a2 2 0 00.12 4H47a2 2 0 10-.24-4zm.15 3.55h-.09a1.48 1.48 0 01-1.45-1.51A1.51 1.51 0 1146.91 30zM106 26.45a2 2 0 00.11 4h.13a2 2 0 00-.24-4zm.15 3.51h-.09a1.48 1.48 0 01-1.45-1.51 1.51 1.51 0 111.56 1.55z" fill="#fff"/></svg>